<svg width="42" height="42" viewBox="0 0 42 42" fill="none" xmlns="http://www.w3.org/2000/svg">
<rect width="42" height="42" rx="12" fill="white"/>
<path d="M21.0001 28.3334C25.0502 28.3334 28.3334 25.0502 28.3334 21.0001C28.3334 16.95 25.0502 13.6667 21.0001 13.6667C16.95 13.6667 13.6667 16.95 13.6667 21.0001C13.6667 25.0502 16.95 28.3334 21.0001 28.3334Z" stroke="#030303" stroke-width="1.46667" stroke-linecap="round"/>
<path d="M21 16.4167V25.5834M23.75 18.7084C22.8333 17.7917 20.0833 17.7917 19.1667 18.7084C18.25 19.6251 19.1667 20.5417 20.5417 21.0001C21.9167 21.4584 23.75 21.9167 22.8333 23.2917C21.9167 24.6667 19.1667 24.2084 18.25 23.2917" stroke="#030303" stroke-width="1.46667" stroke-linecap="round"/>
</svg>
