<svg width="42" height="42" viewBox="0 0 42 42" fill="none" xmlns="http://www.w3.org/2000/svg">
<rect width="42" height="42" rx="12" fill="white"/>
<path d="M13.6666 28.3333H28.3333M13.6666 24.6667L17.3333 21L21 23.75L24.6666 18.25L28.3333 21.9167" stroke="#030303" stroke-width="1.46667" stroke-linecap="round"/>
<path d="M17.3334 22.375C18.0928 22.375 18.7084 21.7594 18.7084 21C18.7084 20.2406 18.0928 19.625 17.3334 19.625C16.574 19.625 15.9584 20.2406 15.9584 21C15.9584 21.7594 16.574 22.375 17.3334 22.375Z" stroke="#030303" stroke-width="1.46667" stroke-linecap="round"/>
<path d="M21 25.125C21.7594 25.125 22.375 24.5094 22.375 23.75C22.375 22.9906 21.7594 22.375 21 22.375C20.2406 22.375 19.625 22.9906 19.625 23.75C19.625 24.5094 20.2406 25.125 21 25.125Z" stroke="#030303" stroke-width="1.46667" stroke-linecap="round"/>
<path d="M24.6666 19.625C25.426 19.625 26.0416 19.0094 26.0416 18.25C26.0416 17.4906 25.426 16.875 24.6666 16.875C23.9072 16.875 23.2916 17.4906 23.2916 18.25C23.2916 19.0094 23.9072 19.625 24.6666 19.625Z" stroke="#030303" stroke-width="1.46667" stroke-linecap="round"/>
<path d="M28.3334 23.2917C29.0928 23.2917 29.7084 22.6761 29.7084 21.9167C29.7084 21.1574 29.0928 20.5417 28.3334 20.5417C27.574 20.5417 26.9584 21.1574 26.9584 21.9167C26.9584 22.6761 27.574 23.2917 28.3334 23.2917Z" stroke="#030303" stroke-width="1.46667" stroke-linecap="round"/>
</svg>
