<svg width="1293" height="261" viewBox="0 0 1293 261" fill="none" xmlns="http://www.w3.org/2000/svg">
<path d="M259.099 272.789C259.099 326.535 214.986 374.197 132.338 374.197C50.1972 374.197 3.04228 327.549 2.7705e-05 261.127H25.3521C29.4085 316.902 63.8873 353.409 132.338 353.409C188.62 353.409 233.747 324 233.747 275.324C233.747 232.733 210.423 214.479 151.606 202.31L110.028 193.69C64.3944 184.564 11.155 164.789 11.155 100.395C11.155 44.6199 60.3381 0.000182351 130.817 0.000182351C198.254 0.000182351 251.493 43.0988 255.042 111.042H229.183C226.141 58.8171 187.606 20.7889 130.817 20.7889C69.4648 20.7889 36.5071 59.3241 36.5071 99.3805C36.5071 148.564 77.5775 162.761 122.704 172.395L163.775 181.014C224.113 193.69 259.099 217.014 259.099 272.789ZM340.083 41.5777C340.083 54.2537 330.449 63.8875 317.773 63.8875C304.59 63.8875 294.956 54.2537 294.956 41.5777C294.956 29.4086 304.59 20.7889 317.773 20.7889C330.449 20.7889 340.083 29.4086 340.083 41.5777ZM329.435 369.127H306.111V103.437H329.435V369.127ZM406.521 369.127H383.197V5.0706H406.521V369.127ZM561.173 374.704C488.666 374.704 439.99 318.423 439.99 233.747C439.99 156.169 490.694 98.3664 558.638 98.3664C631.652 98.3664 678.807 156.676 675.257 241.859H463.314C466.356 311.324 503.37 355.437 561.173 355.437C610.356 355.437 644.328 327.042 653.455 279.38H676.272C665.624 337.69 621.511 374.704 561.173 374.704ZM558.638 116.62C505.398 116.62 466.863 159.719 463.821 223.606H650.919C647.37 156.676 612.891 116.62 558.638 116.62ZM800.045 374.704C732.102 374.704 684.44 317.916 684.44 235.775C684.44 154.648 732.102 98.3664 800.045 98.3664C859.369 98.3664 901.961 137.409 913.116 202.31H889.792C880.665 149.578 847.2 118.141 800.552 118.141C745.792 118.141 708.271 166.31 708.271 235.775C708.271 306.254 745.792 354.93 800.552 354.93C847.707 354.93 880.665 323.493 890.299 270.254H913.116C902.975 335.155 859.876 374.704 800.045 374.704ZM1073.96 347.324V368.113C1061.29 372.676 1051.65 374.197 1041.01 374.197C1000.44 374.197 966.977 354.93 966.977 298.141V122.704H901.569V103.437H966.977V24.3382H990.808V103.437H1076.5V122.704H990.808V293.578C990.808 338.197 1013.12 352.395 1044.05 352.395C1054.7 352.395 1062.81 351.38 1073.96 347.324ZM1270.78 369.127V315.38C1256.58 351.888 1221.6 374.197 1178.5 374.197C1123.74 374.197 1088.24 343.775 1088.24 296.62C1088.24 244.395 1129.82 218.028 1210.95 218.028C1227.68 218.028 1239.85 218.535 1269.76 221.071V196.226C1269.76 146.535 1243.4 117.127 1198.78 117.127C1151.12 117.127 1120.69 147.549 1120.19 195.719H1098.38C1098.89 136.902 1138.95 98.3664 1198.27 98.3664C1257.6 98.3664 1292.58 133.859 1292.58 193.69V369.127H1270.78ZM1111.57 296.113C1111.57 332.113 1138.95 355.944 1180.53 355.944C1234.78 355.944 1269.76 318.93 1269.76 262.648V237.803C1244.41 235.268 1227.17 234.761 1211.96 234.761C1144.02 234.761 1111.57 254.535 1111.57 296.113Z" fill="#EC9117"/>
</svg>
