<svg width="1440" height="261" viewBox="0 0 1440 261" fill="none" xmlns="http://www.w3.org/2000/svg">
<path d="M242.241 272.789C242.241 326.535 198.129 374.197 115.481 374.197C33.34 374.197 -13.8149 327.549 -16.8572 261.127H8.49496C12.5513 316.902 47.0302 353.409 115.481 353.409C171.763 353.409 216.889 324 216.889 275.324C216.889 232.733 193.565 214.479 134.748 202.31L93.171 193.69C47.5372 184.564 -5.70222 164.789 -5.70222 100.395C-5.70222 44.6199 43.4809 0.000182351 113.96 0.000182351C181.396 0.000182351 234.636 43.0988 238.185 111.042H212.326C209.284 58.8171 170.748 20.7889 113.96 20.7889C52.6076 20.7889 19.6499 59.3241 19.6499 99.3805C19.6499 148.564 60.7203 162.761 105.847 172.395L146.918 181.014C207.256 193.69 242.241 217.014 242.241 272.789ZM389.648 374.704C317.141 374.704 268.465 318.423 268.465 233.747C268.465 156.169 319.169 98.3664 387.113 98.3664C460.127 98.3664 507.282 156.676 503.733 241.859H291.789C294.831 311.324 331.845 355.437 389.648 355.437C438.831 355.437 472.803 327.042 481.93 279.38H504.747C494.099 337.69 449.986 374.704 389.648 374.704ZM387.113 116.62C333.873 116.62 295.338 159.719 292.296 223.606H479.395C475.845 156.676 441.366 116.62 387.113 116.62ZM561.979 369.127H538.655V5.0706H561.979V369.127ZM716.631 374.704C644.124 374.704 595.448 318.423 595.448 233.747C595.448 156.169 646.152 98.3664 714.096 98.3664C787.11 98.3664 834.265 156.676 830.715 241.859H618.772C621.814 311.324 658.828 355.437 716.631 355.437C765.814 355.437 799.786 327.042 808.913 279.38H831.73C821.082 337.69 776.969 374.704 716.631 374.704ZM714.096 116.62C660.856 116.62 622.321 159.719 619.279 223.606H806.377C802.828 156.676 768.349 116.62 714.096 116.62ZM955.503 374.704C887.56 374.704 839.898 317.916 839.898 235.775C839.898 154.648 887.56 98.3664 955.503 98.3664C1014.83 98.3664 1057.42 137.409 1068.57 202.31H1045.25C1036.12 149.578 1002.66 118.141 956.01 118.141C901.25 118.141 863.729 166.31 863.729 235.775C863.729 306.254 901.25 354.93 956.01 354.93C1003.17 354.93 1036.12 323.493 1045.76 270.254H1068.57C1058.43 335.155 1015.33 374.704 955.503 374.704ZM1229.42 347.324V368.113C1216.75 372.676 1207.11 374.197 1196.46 374.197C1155.9 374.197 1122.44 354.93 1122.44 298.141V122.704H1057.03V103.437H1122.44V24.3382H1146.27V103.437H1231.96V122.704H1146.27V293.578C1146.27 338.197 1168.58 352.395 1199.51 352.395C1210.15 352.395 1218.27 351.38 1229.42 347.324ZM1426.24 369.127V315.38C1412.04 351.888 1377.05 374.197 1333.95 374.197C1279.19 374.197 1243.7 343.775 1243.7 296.62C1243.7 244.395 1285.28 218.028 1366.41 218.028C1383.14 218.028 1395.31 218.535 1425.22 221.071V196.226C1425.22 146.535 1398.86 117.127 1354.24 117.127C1306.57 117.127 1276.15 147.549 1275.65 195.719H1253.84C1254.35 136.902 1294.41 98.3664 1353.73 98.3664C1413.05 98.3664 1448.04 133.859 1448.04 193.69V369.127H1426.24ZM1267.03 296.113C1267.03 332.113 1294.41 355.944 1335.98 355.944C1390.24 355.944 1425.22 318.93 1425.22 262.648V237.803C1399.87 235.268 1382.63 234.761 1367.42 234.761C1299.48 234.761 1267.03 254.535 1267.03 296.113Z" fill="#EC9117"/>
</svg>
