<svg width="86" height="26" viewBox="0 0 86 26" fill="none" xmlns="http://www.w3.org/2000/svg">
<rect width="21.22" height="26" rx="10.61" fill="#030303"/>
<rect x="7.21997" y="6" width="8" height="8" rx="4" fill="#EC9117"/>
<path d="M41.732 15.918C41.732 17.97 40.058 19.68 37.052 19.68C34.046 19.68 32.282 18.006 32.156 15.558H33.524C33.65 17.394 34.802 18.582 37.034 18.582C38.87 18.582 40.31 17.646 40.31 16.098C40.31 14.766 39.554 14.154 37.718 13.776L36.08 13.452C34.37 13.11 32.57 12.318 32.57 10.068C32.57 7.998 34.388 6.396 36.962 6.396C39.482 6.396 41.426 7.98 41.57 10.446H40.184C40.094 8.736 38.834 7.494 36.98 7.494C35 7.494 33.938 8.7 33.938 9.996C33.938 11.526 35.234 11.994 36.674 12.282L38.312 12.624C40.49 13.074 41.732 13.974 41.732 15.918ZM45.4324 7.818C45.4324 8.376 45.0184 8.772 44.4064 8.772C43.8124 8.772 43.3984 8.376 43.3984 7.818C43.3984 7.278 43.8124 6.882 44.4064 6.882C45.0184 6.882 45.4324 7.278 45.4324 7.818ZM45.0544 19.5H43.7944V10.014H45.0544V19.5ZM48.6846 19.5H47.4246V6.576H48.6846V19.5ZM54.7808 19.68C52.1168 19.68 50.3528 17.682 50.3528 14.676C50.3528 11.904 52.1888 9.834 54.7088 9.834C57.4088 9.834 59.1728 12.012 58.9568 15.054H51.6128C51.7208 17.304 52.9088 18.69 54.7628 18.69C56.3468 18.69 57.4448 17.808 57.7508 16.296H58.9928C58.5608 18.402 56.9588 19.68 54.7808 19.68ZM54.6908 10.806C52.9808 10.806 51.7748 12.12 51.6128 14.19H57.6428C57.5348 12.066 56.4368 10.806 54.6908 10.806ZM64.0494 19.698C61.5474 19.698 59.8014 17.664 59.8014 14.748C59.8014 11.868 61.5654 9.834 64.0494 9.834C66.2634 9.834 67.8474 11.31 68.2254 13.686H66.9474C66.6594 11.958 65.5794 10.932 64.0494 10.932C62.2854 10.932 61.0794 12.48 61.0794 14.748C61.0794 17.052 62.2854 18.6 64.0494 18.6C65.5974 18.6 66.6594 17.592 66.9474 15.828H68.2254C67.8834 18.24 66.2814 19.698 64.0494 19.698ZM74.7773 18.294V19.41C74.2913 19.608 73.8773 19.68 73.4093 19.68C71.8433 19.68 70.6373 18.87 70.6373 16.818V11.076H68.4053V10.014H70.6373V7.206H71.8973V10.014H74.8673V11.076H71.8973V16.548C71.8973 18.024 72.6173 18.528 73.6613 18.528C74.0573 18.528 74.3813 18.456 74.7773 18.294ZM82.2443 19.5V17.772C81.6863 18.96 80.5343 19.68 79.0583 19.68C77.0963 19.68 75.8183 18.582 75.8183 16.872C75.8183 15.018 77.2943 14.046 80.1743 14.046C80.7503 14.046 81.1823 14.082 82.1183 14.154V13.362C82.1183 11.778 81.2723 10.842 79.8323 10.842C78.2843 10.842 77.3123 11.796 77.2943 13.344H76.1423C76.1963 11.238 77.6543 9.834 79.8143 9.834C82.0283 9.834 83.3243 11.13 83.3243 13.326V19.5H82.2443ZM77.0243 16.836C77.0243 17.988 77.9063 18.762 79.2383 18.762C81.0023 18.762 82.1183 17.61 82.1183 15.828V14.982C81.3083 14.91 80.7503 14.892 80.2283 14.892C78.0683 14.892 77.0243 15.522 77.0243 16.836Z" fill="#EC9117"/>
</svg>
