<svg width="98" height="29" viewBox="0 0 98 29" fill="none" xmlns="http://www.w3.org/2000/svg">
<rect y="1.5" width="21.22" height="26" rx="10.61" fill="#030303"/>
<rect x="7.21997" y="7.5" width="8" height="8" rx="4" fill="#EC9117"/>
<path d="M42.677 18.01C42.677 20.385 40.777 22.19 37.471 22.19C34.184 22.19 32.189 20.385 32.018 17.668H34.146C34.241 19.397 35.343 20.518 37.433 20.518C39.162 20.518 40.454 19.701 40.454 18.295C40.454 17.155 39.713 16.585 38.136 16.243L36.16 15.863C34.241 15.483 32.493 14.514 32.493 12.196C32.493 9.897 34.507 8.168 37.338 8.168C40.169 8.168 42.316 9.897 42.487 12.614H40.359C40.245 10.98 39.067 9.84 37.357 9.84C35.59 9.84 34.621 10.885 34.621 12.063C34.621 13.355 35.742 13.811 37.015 14.077L39.029 14.476C41.366 14.951 42.677 15.977 42.677 18.01ZM48.8965 22.19C45.9895 22.19 44.0325 20.081 44.0325 16.908C44.0325 13.925 46.0655 11.74 48.8395 11.74C51.8415 11.74 53.8365 14.172 53.4945 17.44H45.9895C46.1415 19.492 47.1675 20.689 48.8585 20.689C50.2835 20.689 51.2715 19.91 51.5945 18.599H53.4945C53.0005 20.841 51.2715 22.19 48.8965 22.19ZM48.8015 13.184C47.2625 13.184 46.2175 14.286 46.0085 16.167H51.4615C51.3665 14.305 50.3595 13.184 48.8015 13.184ZM57.2828 22H55.3448V8.358H57.2828V22ZM63.8983 22.19C60.9913 22.19 59.0343 20.081 59.0343 16.908C59.0343 13.925 61.0673 11.74 63.8413 11.74C66.8433 11.74 68.8383 14.172 68.4963 17.44H60.9913C61.1433 19.492 62.1693 20.689 63.8603 20.689C65.2853 20.689 66.2733 19.91 66.5963 18.599H68.4963C68.0023 20.841 66.2733 22.19 63.8983 22.19ZM63.8033 13.184C62.2643 13.184 61.2193 14.286 61.0103 16.167H66.4633C66.3683 14.305 65.3613 13.184 63.8033 13.184ZM74.1321 22.209C71.3771 22.209 69.4391 20.043 69.4391 16.965C69.4391 13.925 71.4151 11.74 74.1321 11.74C76.6211 11.74 78.4261 13.393 78.7871 16.015H76.7731C76.5641 14.4 75.5571 13.431 74.1511 13.431C72.4981 13.431 71.4151 14.837 71.4151 16.965C71.4151 19.112 72.4981 20.499 74.1511 20.499C75.5761 20.499 76.5641 19.549 76.7921 17.915H78.7871C78.4451 20.575 76.6591 22.209 74.1321 22.209ZM86.2097 20.138V21.829C85.6207 22.095 85.1077 22.19 84.4997 22.19C82.6377 22.19 81.3457 21.183 81.3457 18.96V13.564H79.1227V11.93H81.3457V8.947H83.2647V11.93H86.3047V13.564H83.2647V18.523C83.2647 19.91 83.9297 20.404 84.9557 20.404C85.4117 20.404 85.8107 20.328 86.2097 20.138ZM94.0451 22V20.442C93.4181 21.563 92.2971 22.19 90.8151 22.19C88.7251 22.19 87.3571 20.993 87.3571 19.15C87.3571 17.174 88.9341 16.148 91.9361 16.148C92.5251 16.148 93.0001 16.167 93.8171 16.262V15.521C93.8171 14.077 93.0381 13.26 91.7081 13.26C90.3021 13.26 89.4471 14.096 89.3901 15.502H87.6421C87.7371 13.241 89.3521 11.74 91.7081 11.74C94.1971 11.74 95.6411 13.146 95.6411 15.54V22H94.0451ZM89.1811 19.093C89.1811 20.138 89.9601 20.822 91.1951 20.822C92.8101 20.822 93.8171 19.815 93.8171 18.276V17.459C93.0761 17.364 92.5441 17.345 92.0501 17.345C90.1311 17.345 89.1811 17.915 89.1811 19.093Z" fill="#EC9117"/>
</svg>
