<svg width="361" height="70" viewBox="0 0 361 70" fill="none" xmlns="http://www.w3.org/2000/svg">
<path d="M148.594 48.5692C148.594 59.0334 140.051 67.7513 124.711 67.7513C109.371 67.7513 100.378 59.2108 99.7363 46.7274H106.71C107.352 56.0865 113.234 62.1577 124.616 62.1577C133.978 62.1577 141.334 57.3826 141.334 49.4833C141.334 42.6891 137.472 39.5648 128.11 37.6411L119.757 35.9903C111.036 34.244 101.852 30.2057 101.852 18.7319C101.852 8.17215 111.132 0 124.261 0C137.39 0 147.039 8.07666 147.776 20.6555H140.706C140.242 11.9376 133.814 5.59361 124.356 5.59361C114.257 5.59361 108.839 11.7466 108.839 18.3499C108.839 26.1537 115.458 28.5412 122.801 30.0147L131.153 31.761C142.262 34.053 148.608 38.6507 148.608 48.5556L148.594 48.5692Z" fill="#EC9117"/>
<path d="M167.469 7.2581C167.469 10.1095 165.354 12.1287 162.228 12.1287C159.103 12.1287 157.083 10.1095 157.083 7.2581C157.083 4.4067 159.199 2.48303 162.228 2.48303C165.258 2.48303 167.469 4.5022 167.469 7.2581ZM165.545 66.8373H159.117V18.4591H165.545V66.8373Z" fill="#EC9117"/>
<path d="M184.064 66.8372H177.636V0.914062H184.064V66.8372Z" fill="#EC9117"/>
<path d="M215.167 67.7649C201.574 67.7649 192.581 57.5736 192.581 42.2388C192.581 28.1046 201.943 17.5449 214.812 17.5449C228.583 17.5449 237.59 28.6504 236.485 44.1762H199.009C199.554 55.65 205.628 62.717 215.085 62.717C223.165 62.717 228.774 58.2148 230.33 50.5065H236.662C234.451 61.2436 226.29 67.7649 215.167 67.7649ZM214.703 22.4974C205.982 22.4974 199.827 29.1961 198.995 39.7558H229.756C229.211 28.9232 223.601 22.4974 214.69 22.4974H214.703Z" fill="#EC9117"/>
<path d="M262.456 67.8468C249.696 67.8468 240.784 57.4781 240.784 42.5935C240.784 27.709 249.777 17.5312 262.456 17.5312C273.756 17.5312 281.835 25.0622 283.76 37.1773H277.236C275.762 28.3639 270.262 23.1249 262.456 23.1249C253.462 23.1249 247.307 31.0243 247.307 42.5935C247.307 54.1628 253.462 62.2395 262.456 62.2395C270.358 62.2395 275.776 57.0961 277.236 48.1053H283.76C282.013 60.4113 273.838 67.8468 262.456 67.8468Z" fill="#EC9117"/>
<path d="M317.196 60.6843V66.3734C314.712 67.383 312.611 67.7513 310.222 67.7513C302.239 67.7513 296.084 63.6175 296.084 53.1533V23.8617H284.701V18.4454H296.084V4.12024H302.512V18.4454H317.66V23.8617H302.512V51.7754C302.512 59.3063 306.183 61.8712 311.505 61.8712C313.525 61.8712 315.176 61.5028 317.196 60.6843Z" fill="#EC9117"/>
<path d="M355.287 66.8373V58.0239C352.434 64.0814 346.566 67.7513 339.032 67.7513C329.029 67.7513 322.505 62.1577 322.505 53.4262C322.505 43.9716 330.039 39.0055 344.723 39.0055C347.658 39.0055 349.868 39.1828 354.645 39.5512V35.5129C354.645 27.4362 350.333 22.6611 342.976 22.6611C335.075 22.6611 330.121 27.5317 330.025 35.4174H324.143C324.416 24.6803 331.854 17.5177 342.881 17.5177C353.908 17.5177 360.787 24.1346 360.787 35.3218V66.81H355.273L355.287 66.8373ZM328.66 53.2488C328.66 59.129 333.164 63.0718 339.96 63.0718C348.954 63.0718 354.659 57.1916 354.659 48.1054V43.7942C350.524 43.4258 347.685 43.3303 345.01 43.3303C333.983 43.3303 328.66 46.5501 328.66 53.2488Z" fill="#EC9117"/>
<path d="M6.26422 53.3852L0 47.1912L27.6363 19.5231L43.5084 35.2945L70.5851 8.22671L66.4363 3.72448L83.7823 0.491089L81.7761 18.65L76.9585 14.4206L43.5766 47.7915L27.6909 32.0474L6.26422 53.3852Z" fill="#EC9117"/>
<path d="M21.5904 48.1599L27.7455 41.775L43.4674 57.3962L71.1174 29.851L77.3406 36.1676L43.5084 69.9887L21.5904 48.1599Z" fill="#EC9117"/>
</svg>
