<svg width="20" height="20" viewBox="0 0 20 20" fill="none" xmlns="http://www.w3.org/2000/svg">
<path d="M10.4176 18.3334H3.40091C2.43424 18.3334 1.64258 17.5584 1.64258 16.6084V4.24173C1.64258 2.0584 3.26758 1.06673 5.25924 2.04173L8.95924 3.8584C9.75924 4.25007 10.4176 5.29173 10.4176 6.17507V18.3334Z" stroke="black" stroke-width="1.5" stroke-linecap="round" stroke-linejoin="round"/>
<path d="M18.3077 12.5501V15.7001C18.3077 17.5001 17.4743 18.3334 15.6743 18.3334H10.416V8.68341L10.8077 8.76674L14.5577 9.60841L16.2493 9.98341C17.3493 10.2251 18.2493 10.7917 18.2993 12.3917C18.3077 12.4417 18.3077 12.4917 18.3077 12.5501Z" stroke="black" stroke-width="1.5" stroke-linecap="round" stroke-linejoin="round"/>
<path d="M4.58398 7.50006H7.47565" stroke="black" stroke-width="1.5" stroke-linecap="round" stroke-linejoin="round"/>
<path d="M4.58398 10.8334H7.47565" stroke="black" stroke-width="1.5" stroke-linecap="round" stroke-linejoin="round"/>
<path d="M14.5586 9.60839V12.2917C14.5586 13.3251 13.7169 14.1667 12.6836 14.1667C11.6503 14.1667 10.8086 13.3251 10.8086 12.2917V8.76672L14.5586 9.60839Z" stroke="black" stroke-width="1.5" stroke-linecap="round" stroke-linejoin="round"/>
<path d="M18.3003 12.3917C18.2503 13.3751 17.4336 14.1667 16.4336 14.1667C15.4003 14.1667 14.5586 13.3251 14.5586 12.2917V9.6084L16.2503 9.9834C17.3503 10.2251 18.2503 10.7917 18.3003 12.3917Z" stroke="#171717" stroke-width="1.5" stroke-linecap="round" stroke-linejoin="round"/>
</svg>
