<svg width="20" height="20" viewBox="0 0 20 20" fill="none" xmlns="http://www.w3.org/2000/svg">
<path d="M5.41602 18.3333V12.5" stroke="black" stroke-width="1.5" stroke-miterlimit="10" stroke-linecap="round" stroke-linejoin="round"/>
<path d="M5.41602 4.16669V1.66669" stroke="black" stroke-width="1.5" stroke-miterlimit="10" stroke-linecap="round" stroke-linejoin="round"/>
<path d="M14.584 18.3333V15.8333" stroke="black" stroke-width="1.5" stroke-miterlimit="10" stroke-linecap="round" stroke-linejoin="round"/>
<path d="M14.584 7.50002V1.66669" stroke="black" stroke-width="1.5" stroke-miterlimit="10" stroke-linecap="round" stroke-linejoin="round"/>
<path d="M7.91602 5.83335V10.8334C7.91602 11.75 7.49935 12.5 6.24935 12.5H4.58268C3.33268 12.5 2.91602 11.75 2.91602 10.8334V5.83335C2.91602 4.91669 3.33268 4.16669 4.58268 4.16669H6.24935C7.49935 4.16669 7.91602 4.91669 7.91602 5.83335Z" stroke="black" stroke-width="1.5" stroke-miterlimit="10" stroke-linecap="round" stroke-linejoin="round"/>
<path d="M17.084 9.16667V14.1667C17.084 15.0833 16.6673 15.8333 15.4173 15.8333H13.7507C12.5007 15.8333 12.084 15.0833 12.084 14.1667V9.16667C12.084 8.25 12.5007 7.5 13.7507 7.5H15.4173C16.6673 7.5 17.084 8.25 17.084 9.16667Z" stroke="#171717" stroke-width="1.5" stroke-miterlimit="10" stroke-linecap="round" stroke-linejoin="round"/>
</svg>
