<svg width="22" height="22" viewBox="0 0 22 22" fill="none" xmlns="http://www.w3.org/2000/svg">
<path d="M3.6665 18.3333H18.3332M3.6665 14.6667L7.33317 11L10.9998 13.75L14.6665 8.25L18.3332 11.9167" stroke="#030303" stroke-width="1.46667" stroke-linecap="round"/>
<path d="M7.3335 12.375C8.09289 12.375 8.7085 11.7594 8.7085 11C8.7085 10.2406 8.09289 9.625 7.3335 9.625C6.5741 9.625 5.9585 10.2406 5.9585 11C5.9585 11.7594 6.5741 12.375 7.3335 12.375Z" stroke="#030303" stroke-width="1.46667" stroke-linecap="round"/>
<path d="M11 15.125C11.7594 15.125 12.375 14.5094 12.375 13.75C12.375 12.9906 11.7594 12.375 11 12.375C10.2406 12.375 9.625 12.9906 9.625 13.75C9.625 14.5094 10.2406 15.125 11 15.125Z" stroke="#030303" stroke-width="1.46667" stroke-linecap="round"/>
<path d="M14.6665 9.625C15.4259 9.625 16.0415 9.00939 16.0415 8.25C16.0415 7.49061 15.4259 6.875 14.6665 6.875C13.9071 6.875 13.2915 7.49061 13.2915 8.25C13.2915 9.00939 13.9071 9.625 14.6665 9.625Z" stroke="#030303" stroke-width="1.46667" stroke-linecap="round"/>
<path d="M18.3335 13.2916C19.0929 13.2916 19.7085 12.676 19.7085 11.9166C19.7085 11.1572 19.0929 10.5416 18.3335 10.5416C17.5741 10.5416 16.9585 11.1572 16.9585 11.9166C16.9585 12.676 17.5741 13.2916 18.3335 13.2916Z" stroke="#030303" stroke-width="1.46667" stroke-linecap="round"/>
</svg>
