<svg preserveAspectRatio="none" width="100%" height="100%" overflow="visible" style="display: block;" viewBox="0 0 87 16" fill="none" xmlns="http://www.w3.org/2000/svg">
<g id="Frame 228">
<path id="Fill-18" d="M53.882 9.75612C54.723 9.75612 55.4335 9.0479 55.4335 8.19514C55.4335 7.34239 54.723 6.63417 53.882 6.63417C53.041 6.63417 52.3305 7.34239 52.3305 8.19514C52.3305 9.0479 53.041 9.75612 53.882 9.75612Z" fill="var(--fill-0, #C09C7C)"/>
<path id="Vector" d="M83.7085 3.62782C82.476 3.62782 81.6785 4.07588 81.2 4.76965C80.7215 4.04697 79.953 3.62782 78.938 3.62782C77.778 3.62782 77.024 4.07588 76.618 4.66847V3.87353H74.0225V12.5312H76.618V7.64589C76.618 6.61969 77.0965 6.01264 77.9665 6.01264C78.793 6.01264 79.2135 6.56188 79.2135 7.42909V12.5167H81.809V7.63144C81.809 6.60524 82.2875 5.99819 83.1575 5.99819C83.984 5.99819 84.4045 6.54742 84.4045 7.41463V12.5023H87V7.18338C87 5.05872 85.695 3.62782 83.7085 3.62782ZM68.6575 10.2475C67.5265 10.2475 66.671 9.43812 66.671 8.20957C66.671 6.98103 67.541 6.17163 68.6575 6.17163C69.7885 6.17163 70.644 6.98103 70.644 8.20957C70.644 9.43812 69.7885 10.2475 68.6575 10.2475ZM68.6575 3.62782C66.12 3.62782 64.0755 5.6224 64.0755 8.19512C64.0755 10.7678 66.12 12.7624 68.6575 12.7624C71.195 12.7624 73.2395 10.7678 73.2395 8.19512C73.2395 5.6224 71.2095 3.62782 68.6575 3.62782ZM60.3925 10.2186C59.2615 10.2186 58.435 9.40921 58.435 8.20957C58.435 7.00994 59.2615 6.20054 60.3925 6.20054C61.1465 6.20054 61.77 6.56188 62.0745 7.16892L64.3365 5.85366C63.597 4.52394 62.1035 3.64227 60.4215 3.64227C57.797 3.64227 55.8395 5.63686 55.8395 8.20957C55.8395 10.7823 57.797 12.7769 60.4215 12.7769C62.118 12.7769 63.5825 11.8952 64.3365 10.5366L62.0745 9.23577C61.7845 9.84282 61.1465 10.2186 60.3925 10.2186ZM43.1375 10.3198C41.9485 10.3198 41.0785 9.51039 41.0785 8.20957C41.0785 6.90876 41.9485 6.09937 43.1375 6.09937C44.3265 6.09937 45.1965 6.90876 45.1965 8.20957C45.1965 9.49593 44.341 10.3198 43.1375 10.3198ZM45.1965 4.68293C44.631 4.01807 43.7755 3.62782 42.6155 3.62782C40.3535 3.62782 38.483 5.6224 38.483 8.19512C38.483 10.7678 40.3535 12.7624 42.6155 12.7624C43.7755 12.7624 44.6165 12.3577 45.1965 11.7073V12.5167H47.792V3.85908H45.1965V4.68293ZM36.5255 1.44535L33.93 2.22583V3.87353H32.5525V6.37398H33.93V9.43812C33.93 11.8663 34.916 12.878 38.309 12.5312V10.1752C37.1635 10.2475 36.5255 10.1752 36.5255 9.42367V6.35953H38.309V3.85908H36.5255V1.44535ZM29.232 12.5312H31.8275V3.87353H29.232V12.5312ZM49.01 12.5312H51.6055V0L49.01 0.794941V12.5312ZM23.809 10.3198C22.62 10.3198 21.75 9.51039 21.75 8.20957C21.75 6.90876 22.62 6.09937 23.809 6.09937C24.998 6.09937 25.868 6.90876 25.868 8.20957C25.868 9.49593 24.998 10.3198 23.809 10.3198ZM24.331 3.62782C23.171 3.62782 22.33 4.01807 21.75 4.68293V3.87353H19.1545V16H21.75V11.7218C22.3155 12.3866 23.171 12.7769 24.331 12.7769C26.593 12.7769 28.4635 10.7823 28.4635 8.20957C28.4635 5.6224 26.593 3.62782 24.331 3.62782ZM13.282 10.3198C12.093 10.3198 11.223 9.51039 11.223 8.20957C11.223 6.90876 12.093 6.09937 13.282 6.09937C14.471 6.09937 15.341 6.90876 15.341 8.20957C15.341 9.49593 14.4855 10.3198 13.282 10.3198ZM15.341 4.68293C14.7755 4.01807 13.92 3.62782 12.76 3.62782C10.498 3.62782 8.6275 5.6224 8.6275 8.19512C8.6275 10.7678 10.498 12.7624 12.76 12.7624C13.92 12.7624 14.761 12.3577 15.341 11.7073V12.5167H17.9365V3.85908H15.341V4.68293ZM4.553 6.20054C5.307 6.20054 5.9305 6.56188 6.235 7.16892L8.497 5.85366C7.7575 4.52394 6.264 3.64227 4.582 3.64227C1.9575 3.64227 0 5.63686 0 8.20957C0 10.7823 1.9575 12.7769 4.582 12.7769C6.2785 12.7769 7.743 11.8952 8.497 10.5366L6.235 9.23577C5.9595 9.84282 5.3215 10.2042 4.553 10.2042C3.422 10.2042 2.5955 9.39476 2.5955 8.19512C2.5955 6.99548 3.422 6.20054 4.553 6.20054ZM30.566 3.22312C31.407 3.22312 32.1175 2.51491 32.1175 1.66215C32.1175 0.809395 31.407 0.101172 30.566 0.101172C29.725 0.101172 29.0145 0.809395 29.0145 1.66215C29.0145 2.51491 29.725 3.22312 30.566 3.22312Z" fill="var(--fill-0, black)"/>
</g>
</svg>
