<svg preserveAspectRatio="none" width="100%" height="100%" overflow="visible" style="display: block;" viewBox="0 0 72.2 10.2" fill="none" xmlns="http://www.w3.org/2000/svg">
<g id="Logo---white-Copy">
<path id="Path" fill-rule="evenodd" clip-rule="evenodd" d="M27.8 5.1C27.8 8.9 25.3 10 22 10H18.8V0.2H22C25.2 0.2 27.8 1.3 27.8 5.1Z" fill="var(--fill-0, #111111)"/>
<path id="Path_1_" fill-rule="evenodd" clip-rule="evenodd" d="M21.1 2.1V8H22.1C23.8 8 25.4 7.6 25.4 5C25.4 2.4 23.9 2 22.1 2H21.1V2.1Z" fill="var(--fill-0, white)"/>
<path id="Fill-3" fill-rule="evenodd" clip-rule="evenodd" d="M36.5 0.2V2.2H31.3V3.9H36.2V6H31.3V8H36.5V10H28.9V0.2H36.5Z" fill="var(--fill-0, #111111)"/>
<path id="Fill-5" fill-rule="evenodd" clip-rule="evenodd" d="M44.8 3.2C44.6 2.5 43.9 1.9 42.6 1.9C41.2 1.9 40.1 3 40.1 5C40.1 7.1 41.1 8.2 42.7 8.2C43.8 8.2 44.9 7.8 44.9 6.5V6.4H42.5V4.5H47.2V10H45.4L45.3 8.9C44.7 9.8 43.7 10.2 42.3 10.2C39.4 10.2 37.6 8.2 37.6 5.1C37.6 2 39.6 0 42.6 0C44.8 0 46.6 1.1 47 3.2H44.8Z" fill="var(--fill-0, #111111)"/>
<path id="Fill-8" fill-rule="evenodd" clip-rule="evenodd" d="M48.9 10H51.2V0.2H48.9V10Z" fill="var(--fill-0, #111111)"/>
<path id="Path_2_" fill-rule="evenodd" clip-rule="evenodd" d="M55.2 6.3V10H52.9V0.2H56.7C59.3 0.2 61.2 0.8 61.2 3.2C61.2 4.7 60.4 5.5 59.3 5.9L61.7 10H59L56.9 6.3H55.2Z" fill="var(--fill-0, #111111)"/>
<path id="Path_3_" fill-rule="evenodd" clip-rule="evenodd" d="M55.2 4.3H56.7C57.8 4.3 58.6 4.1 58.6 3.2C58.6 2.3 57.8 2.1 56.7 2.1H55.2V4.3Z" fill="var(--fill-0, white)"/>
<path id="Path_4_" fill-rule="evenodd" clip-rule="evenodd" d="M62 5.1C62 2 64.1 0 67.1 0C70.1 0 72.2 2 72.2 5.1C72.2 8.2 70.1 10.2 67.1 10.2C64.1 10.2 62 8.2 62 5.1Z" fill="var(--fill-0, #111111)"/>
<path id="Path_5_" fill-rule="evenodd" clip-rule="evenodd" d="M69.8 5.1C69.8 3 68.6 1.9 67.2 1.9C65.8 1.9 64.6 3 64.6 5.1C64.6 7.2 65.8 8.3 67.2 8.3C68.6 8.3 69.8 7.2 69.8 5.1Z" fill="var(--fill-0, white)"/>
<path id="Fill-12" fill-rule="evenodd" clip-rule="evenodd" d="M0 4.1H16.4V0.2H0V4.1Z" fill="var(--fill-0, #009FDF)"/>
<path id="Fill-13" fill-rule="evenodd" clip-rule="evenodd" d="M0 10H16.4V6H0V10Z" fill="var(--fill-0, #009FDF)"/>
</g>
</svg>
