<svg preserveAspectRatio="none" width="100%" height="100%" overflow="visible" style="display: block;" viewBox="0 0 52 16" fill="none" xmlns="http://www.w3.org/2000/svg">
<g id="Etoro_logo 1" clip-path="url(#clip0_0_80)">
<path id="Vector" fill-rule="evenodd" clip-rule="evenodd" d="M5.00283 5.49847C5.13433 5.38058 5.20542 5.29237 5.09928 5.29237C4.87748 5.29237 3.5344 5.48995 3.2577 4.47858C2.98081 3.46732 4.46141 0.415906 4.51723 0.285119C4.57085 0.159483 4.46004 0 4.29744 0C4.13777 0 4.02064 0.172727 4.00381 0.193881C2.49264 2.08312 0.38296 4.44262 0.111198 5.45968C-0.576351 8.03474 2.08198 9.07837 3.75995 9.26911C3.78969 9.27242 3.80442 9.249 3.80442 9.23095V8.31663C3.80442 7.08274 4.26761 6.15858 5.00283 5.49847Z" fill="var(--fill-0, #13C636)"/>
<path id="Vector_2" fill-rule="evenodd" clip-rule="evenodd" d="M46.9972 5.49847C46.8657 5.38058 46.7946 5.29237 46.9007 5.29237C47.1225 5.29237 48.4656 5.48995 48.7423 4.47858C49.0192 3.46732 47.5386 0.415906 47.4828 0.285119C47.4292 0.159483 47.54 0 47.7026 0C47.8622 0 47.9794 0.172727 47.9962 0.193881C49.5074 2.08312 51.617 4.44262 51.8888 5.45968C52.5763 8.03474 49.918 9.07837 48.2401 9.26911C48.2103 9.27242 48.1957 9.249 48.1957 9.23095V8.31663C48.1957 7.08274 47.7324 6.15858 46.9972 5.49847Z" fill="var(--fill-0, #13C636)"/>
<path id="Vector_3" fill-rule="evenodd" clip-rule="evenodd" d="M45.2311 12.0723C45.2311 13.0709 43.8916 13.6415 43.02 13.6415C42.0875 13.6415 40.7683 13.0709 40.7683 12.0723V8.55316C40.7683 7.55505 42.0875 7.08637 43.02 7.08637C43.8916 7.08637 45.2311 7.55505 45.2311 8.55316V12.0723ZM43.02 4.90604C40.9522 4.92674 38.5387 6.12863 38.5387 8.55316V12.2412C38.5387 14.7065 40.9522 15.8681 43.02 15.8883C45.0472 15.8681 47.461 14.7065 47.461 12.2412V8.55316C47.461 6.12863 45.0472 4.92674 43.02 4.90604Z" fill="var(--fill-0, #13C636)"/>
<path id="Vector_4" fill-rule="evenodd" clip-rule="evenodd" d="M29.6506 12.0723C29.6506 13.0709 28.3107 13.6415 27.4393 13.6415C26.507 13.6415 25.1878 13.0709 25.1878 12.0723V8.55316C25.1878 7.55505 26.507 7.08637 27.4393 7.08637C28.3107 7.08637 29.6506 7.55505 29.6506 8.55316V12.0723ZM27.4393 4.90604C25.3717 4.92674 22.9581 6.12863 22.9581 8.55316V12.2412C22.9581 14.7065 25.3717 15.8681 27.4393 15.8883C29.4665 15.8681 31.8803 14.7065 31.8803 12.2412V8.55316C31.8803 6.12863 29.4665 4.92674 27.4393 4.90604Z" fill="var(--fill-0, #13C636)"/>
<path id="Vector_5" fill-rule="evenodd" clip-rule="evenodd" d="M22.791 5.70895C21.1406 5.26 19.9201 5.07219 18.1513 5.07191C16.3818 5.07145 15.1583 5.25973 13.5109 5.70726C13.4327 5.72484 13.4175 5.80532 13.4535 5.85389C14.0175 6.32237 14.2542 6.94853 14.3638 7.65516C15.2698 7.43368 16.0868 7.30447 17.0364 7.25105V15.8158C17.0355 15.8464 17.0576 15.8652 17.0899 15.8652H19.2117C19.2483 15.868 19.2663 15.852 19.2659 15.8178V7.25253C20.179 7.30679 20.9407 7.43537 21.8399 7.65516C21.9768 6.95253 22.2624 6.29726 22.8401 5.85858C22.8913 5.79474 22.8473 5.72421 22.791 5.70895Z" fill="var(--fill-0, #13C636)"/>
<path id="Vector_6" fill-rule="evenodd" clip-rule="evenodd" d="M38.6194 4.98168C38.4609 4.95933 37.9927 4.89145 37.5804 4.907C35.5494 4.98517 33.2524 6.18984 33.2524 8.55321V8.74379V12.2415V15.8387C33.2517 15.8692 33.2738 15.8881 33.3062 15.8881H35.4279C35.4646 15.8909 35.4826 15.8749 35.4819 15.8406V15.6498H35.4823V8.55321C35.4823 7.77384 36.437 7.29195 37.2334 7.12953C37.465 6.35247 37.92 5.79189 38.6164 5.22983C38.7385 5.13132 38.7319 4.99732 38.6194 4.98168Z" fill="var(--fill-0, #13C636)"/>
<path id="Vector_7" fill-rule="evenodd" clip-rule="evenodd" d="M11.1152 9.17526C11.1152 9.20021 11.1057 9.22311 11.0899 9.23963C11.0728 9.25784 11.0484 9.26947 11.0215 9.26947H6.95464V8.52705C6.95464 7.51421 8.15217 7.03911 9.09794 7.03911C9.98205 7.03911 11.1158 7.51421 11.1158 8.52705L11.1152 9.17526ZM9.09794 4.82777C7.00078 4.84855 4.69318 6.06769 4.69318 8.52705V12.2674C4.69318 14.7679 7.00078 15.9461 9.09794 15.9666C10.6004 15.9516 12.3111 15.3269 13.1252 14.0026C13.1524 13.9587 13.1283 13.9007 13.087 13.8764C12.3691 13.4627 11.9525 13.2336 11.241 12.8312C11.2186 12.8185 11.1944 12.8185 11.1763 12.8489C10.7875 13.4997 9.79543 13.8588 9.09794 13.8588C8.15217 13.8588 6.95464 13.2801 6.95464 12.2674V11.1499H12.7682C13.0788 11.1499 13.3304 10.8969 13.3304 10.5847V8.52705C13.3304 6.06769 11.154 4.84855 9.09794 4.82777Z" fill="var(--fill-0, #13C636)"/>
</g>
<defs>
<clipPath id="clip0_0_80">
<rect width="52" height="16" fill="white"/>
</clipPath>
</defs>
</svg>
