<svg preserveAspectRatio="none" width="100%" height="100%" overflow="visible" style="display: block;" viewBox="0 0 243.05 33.55" fill="none" xmlns="http://www.w3.org/2000/svg">
<g id="Group">
<path id="Vector" d="M17.17 2.44995V27.02C17.17 28.8 16.52 30.34 15.23 31.62C13.93 32.9 12.39 33.54 10.61 33.54H6.56999C4.74999 33.54 3.2 32.9 1.92 31.63C0.639998 30.36 0 28.82 0 27.02V20.66C0 19.92 0.199996 19.34 0.589996 18.92C0.989996 18.5 1.51 18.29 2.17 18.29C2.83 18.29 3.33999 18.51 3.75999 18.96C4.17999 19.41 4.39 19.97 4.39 20.66V27.02C4.39 27.63 4.6 28.14 5.03 28.56C5.46 28.98 5.97 29.19 6.56 29.19H10.6C11.17 29.19 11.69 28.97 12.14 28.53C12.59 28.09 12.82 27.5899 12.82 27.0099V2.44C12.82 1.7 13.02 1.10998 13.41 0.669983C13.81 0.229983 14.33 0.00994873 14.99 0.00994873C15.61 0.00994873 16.13 0.240002 16.54 0.690002C16.95 1.14 17.16 1.72999 17.16 2.42999L17.17 2.44995Z" fill="var(--fill-0, black)"/>
<path id="Vector_2" d="M36.51 9.12H44.21C45.96 9.12 47.46 9.73 48.71 10.94C49.96 12.15 50.61 13.68 50.68 15.54L51.26 31.07V31.17C51.26 31.84 51.05 32.41 50.64 32.86C50.23 33.31 49.73 33.54 49.14 33.54C48.55 33.54 48.04 33.35 47.65 32.97C47.26 32.59 47.02 32.06 46.92 31.37L44.39 32.96C44.12 33.13 43.8 33.27 43.44 33.38C43.08 33.49 42.75 33.54 42.47 33.54H36.31C34.52 33.54 33 32.91 31.74 31.66C30.48 30.41 29.85 28.89 29.85 27.13V24.71C29.85 22.94 30.49 21.42 31.77 20.15C33.05 18.88 34.56 18.24 36.32 18.24H44.6C44.95 18.24 45.29 18.27 45.6 18.33C45.91 18.39 46.21 18.48 46.5 18.6L46.35 15.54C46.32 14.92 46.11 14.42 45.72 14.04C45.33 13.66 44.84 13.47 44.23 13.47H36.53C35.81 13.47 35.24 13.28 34.83 12.89C34.42 12.5 34.21 11.97 34.21 11.3C34.21 10.63 34.42 10.14 34.85 9.72998C35.28 9.32998 35.84 9.12 36.53 9.12H36.51ZM36.26 22.58C35.72 22.58 35.24 22.79 34.82 23.21C34.4 23.63 34.19 24.13 34.19 24.7V27.12C34.19 27.68 34.4 28.16 34.81 28.57C35.22 28.98 35.72 29.19 36.31 29.19H42.09L46.76 26.56L46.71 24.64C46.71 24.05 46.5 23.56 46.08 23.16C45.66 22.76 45.16 22.57 44.59 22.57H36.26V22.58Z" fill="var(--fill-0, black)"/>
<path id="Vector_3" d="M83.23 2.44995V31.11C83.23 31.82 83.02 32.4 82.6 32.85C82.18 33.3 81.65 33.53 81.01 33.53C80.37 33.53 79.83 33.31 79.43 32.87C79.03 32.43 78.84 31.84 78.84 31.1V30.62L77.22 32.03C76.68 32.5 76.05 32.87 75.31 33.13C74.58 33.39 73.83 33.52 73.08 33.52H69.72C68.98 33.52 68.26 33.39 67.56 33.14C66.86 32.89 66.2 32.52 65.58 32.03L64.09 30.89C63.38 30.33 62.82 29.61 62.4 28.71C61.98 27.81 61.77 26.88 61.77 25.92V16.5C61.77 15.66 61.99 14.78 62.44 13.87C62.89 12.96 63.44 12.25 64.09 11.75L65.58 10.61C66.22 10.11 66.88 9.72997 67.56 9.46997C68.24 9.21997 68.96 9.08997 69.72 9.08997H73.08C73.84 9.08997 74.58 9.22999 75.31 9.48999C76.04 9.75999 76.68 10.13 77.22 10.6L78.84 11.99V2.41998C78.84 1.70998 79.04 1.12999 79.45 0.679993C79.85 0.229993 80.38 0 81.02 0C81.66 0 82.19 0.219983 82.61 0.669983C83.03 1.11998 83.24 1.69998 83.24 2.41998L83.23 2.44995ZM69.72 13.46C69.27 13.46 68.79 13.65 68.31 14.04C68.28 14.06 68.25 14.07 68.23 14.09L66.79 15.23C66.6 15.38 66.45 15.59 66.34 15.86C66.22 16.13 66.16 16.4 66.16 16.67V25.94C66.16 26.23 66.22 26.51 66.34 26.8C66.46 27.09 66.61 27.3 66.79 27.43L68.23 28.57C68.23 28.57 68.26 28.6 68.28 28.62C68.78 29.01 69.26 29.2 69.72 29.2H73.08C73.33 29.2 73.58 29.15 73.83 29.05C74.07 28.95 74.33 28.79 74.6 28.57L78.26 25.59C78.43 25.46 78.57 25.25 78.68 24.96C78.79 24.67 78.84 24.38 78.84 24.08V18.55C78.84 18.25 78.79 17.96 78.68 17.68C78.57 17.4 78.43 17.2 78.26 17.06L74.6 14.11C74.35 13.89 74.1 13.73 73.87 13.63C73.63 13.53 73.37 13.48 73.09 13.48H69.73L69.72 13.46Z" fill="var(--fill-0, black)"/>
<path id="Vector_4" d="M102.07 9.12H106.87C107.59 9.12 108.31 9.24995 109.03 9.50995C109.75 9.76995 110.41 10.15 111.01 10.63L112.88 12.12C113.59 12.71 114.15 13.45 114.57 14.34C114.99 15.23 115.2 16.15 115.2 17.09V22.27C115.2 22.89 114.97 23.41 114.52 23.82C114.07 24.23 113.48 24.44 112.78 24.44H98.13V25.58C98.13 25.88 98.2 26.18 98.34 26.46C98.48 26.75 98.67 26.98 98.91 27.17L100.75 28.74C100.95 28.89 101.16 29.01 101.37 29.08C101.58 29.16 101.83 29.19 102.12 29.19H112.78C113.5 29.19 114.09 29.39 114.54 29.8C114.99 30.2 115.21 30.73 115.21 31.37C115.21 32.01 114.98 32.53 114.53 32.94C114.08 33.34 113.49 33.55 112.79 33.55H102.08C101.36 33.55 100.65 33.42 99.96 33.17C99.27 32.92 98.61 32.55 97.99 32.06L96.12 30.49C95.4 29.9 94.83 29.17 94.42 28.29C94.01 27.41 93.8 26.51 93.8 25.59V17.1C93.8 16.16 94.01 15.24 94.42 14.35C94.83 13.46 95.4 12.72 96.12 12.13L97.99 10.64C98.61 10.14 99.27 9.76 99.96 9.5C100.65 9.25 101.36 9.12 102.08 9.12H102.07ZM102.12 13.41C101.9 13.41 101.68 13.46 101.45 13.55C101.22 13.64 100.99 13.77 100.76 13.94L98.92 15.48C98.68 15.67 98.49 15.91 98.35 16.2C98.21 16.49 98.14 16.79 98.14 17.1V20.03H110.87V17.1C110.87 16.8 110.8 16.5 110.66 16.2C110.52 15.91 110.34 15.6699 110.12 15.5099L108.23 13.94C108.01 13.77 107.79 13.64 107.56 13.55C107.33 13.46 107.11 13.41 106.89 13.41H102.14H102.12Z" fill="var(--fill-0, black)"/>
<path id="Vector_5" d="M125.76 0.0299683H147.18V5.60999C147.18 6.32999 146.98 6.92 146.57 7.37C146.17 7.82 145.64 8.03998 145 8.03998C144.36 8.03998 143.84 7.80999 143.43 7.35999C143.03 6.90999 142.82 6.32 142.82 5.62V4.38H138.63V31.12C138.63 31.84 138.43 32.43 138.02 32.87C137.62 33.32 137.09 33.54 136.45 33.54C135.81 33.54 135.29 33.31 134.88 32.86C134.48 32.41 134.27 31.82 134.27 31.12V4.38H130.08V5.62C130.08 6.34 129.88 6.93 129.47 7.38C129.07 7.83 128.54 8.04999 127.9 8.04999C127.26 8.04999 126.74 7.82 126.33 7.37C125.93 6.92 125.72 6.33 125.72 5.63V0.0499878L125.76 0.0299683Z" fill="var(--fill-0, black)"/>
<path id="Vector_6" d="M162.07 11.52V13.79L165.68 10.63C166.22 10.16 166.86 9.78996 167.61 9.51996C168.36 9.24996 169.1 9.12 169.82 9.12H172.67C174.44 9.12 175.96 9.74995 177.23 11.0099C178.5 12.2699 179.14 13.78 179.14 15.53V16.5099C179.14 17.2299 178.94 17.8199 178.53 18.2599C178.13 18.7099 177.6 18.93 176.96 18.93C176.32 18.93 175.8 18.7 175.39 18.25C174.99 17.8 174.78 17.2099 174.78 16.5099V15.53C174.78 14.97 174.57 14.48 174.15 14.05C173.73 13.62 173.23 13.41 172.66 13.41H169.81C169.57 13.41 169.3 13.47 168.99 13.6C168.68 13.73 168.44 13.87 168.27 14.04L162.06 19.52V31.11C162.06 31.83 161.86 32.42 161.45 32.86C161.05 33.31 160.52 33.53 159.88 33.53C159.24 33.53 158.72 33.3 158.31 32.85C157.91 32.4 157.7 31.81 157.7 31.11V11.5099C157.7 10.7699 157.9 10.1799 158.29 9.75995C158.69 9.32995 159.21 9.12 159.87 9.12C160.53 9.12 161.03 9.33998 161.44 9.78998C161.84 10.24 162.05 10.81 162.05 11.52H162.07Z" fill="var(--fill-0, black)"/>
<path id="Vector_7" d="M196.37 9.12H204.07C205.82 9.12 207.32 9.73 208.57 10.94C209.82 12.15 210.47 13.68 210.54 15.54L211.12 31.07V31.17C211.12 31.84 210.91 32.41 210.5 32.86C210.09 33.31 209.59 33.54 209 33.54C208.41 33.54 207.9 33.35 207.51 32.97C207.12 32.59 206.88 32.06 206.78 31.37L204.25 32.96C203.98 33.13 203.66 33.27 203.3 33.38C202.94 33.49 202.61 33.54 202.33 33.54H196.17C194.38 33.54 192.86 32.91 191.6 31.66C190.34 30.41 189.71 28.89 189.71 27.13V24.71C189.71 22.94 190.35 21.42 191.63 20.15C192.91 18.88 194.42 18.24 196.18 18.24H204.46C204.81 18.24 205.15 18.27 205.46 18.33C205.77 18.39 206.07 18.48 206.36 18.6L206.21 15.54C206.18 14.92 205.97 14.42 205.58 14.04C205.19 13.66 204.7 13.47 204.09 13.47H196.39C195.67 13.47 195.1 13.28 194.69 12.89C194.28 12.5 194.07 11.97 194.07 11.3C194.07 10.63 194.28 10.14 194.71 9.72998C195.14 9.32998 195.7 9.12 196.39 9.12H196.37ZM196.12 22.58C195.58 22.58 195.1 22.79 194.68 23.21C194.26 23.63 194.05 24.13 194.05 24.7V27.12C194.05 27.68 194.26 28.16 194.67 28.57C195.08 28.98 195.58 29.19 196.17 29.19H201.95L206.62 26.56L206.57 24.64C206.57 24.05 206.36 23.56 205.94 23.16C205.52 22.76 205.02 22.57 204.45 22.57H196.12V22.58Z" fill="var(--fill-0, black)"/>
<path id="Vector_8" d="M226.12 10.06L232.43 17.66L238.59 10.06C238.83 9.76 239.11 9.53 239.44 9.37C239.77 9.21 240.1 9.13 240.44 9.13C241.03 9.13 241.53 9.33995 241.94 9.75995C242.35 10.1799 242.56 10.68 242.56 11.25C242.56 11.54 242.51 11.81 242.41 12.07C242.31 12.33 242.16 12.6 241.96 12.87L235.22 21.03L242.42 29.84C242.64 30.08 242.8 30.32 242.9 30.56C243 30.8 243.05 31.08 243.05 31.38C243.05 31.97 242.84 32.47 242.43 32.88C242.02 33.29 241.52 33.5 240.93 33.5C240.59 33.5 240.26 33.42 239.92 33.25C239.58 33.08 239.3 32.85 239.06 32.57L232.39 24.46L225.67 32.57C225.4 32.89 225.11 33.13 224.8 33.28C224.49 33.43 224.16 33.5099 223.8 33.5099C223.19 33.5099 222.69 33.31 222.28 32.92C221.88 32.52 221.67 32.03 221.67 31.44C221.67 31.15 221.72 30.87 221.83 30.59C221.94 30.31 222.09 30.06 222.27 29.84L229.57 21.08L222.75 12.87C222.53 12.6 222.37 12.33 222.27 12.05C222.17 11.77 222.12 11.46 222.12 11.1C222.12 10.61 222.33 10.16 222.76 9.75C223.19 9.34 223.66 9.13 224.19 9.13C224.56 9.13 224.91 9.21 225.24 9.37C225.57 9.53 225.86 9.76 226.11 10.06H226.12Z" fill="var(--fill-0, black)"/>
</g>
</svg>
