<svg width="62" height="11" viewBox="0 0 62 11" fill="none" xmlns="http://www.w3.org/2000/svg">
<path d="M18.2152 1.96115V6.57282C18.2152 6.90692 18.0892 7.19598 17.8392 7.43623C17.5872 7.67648 17.2887 7.7966 16.9436 7.7966H16.1605C15.8077 7.7966 15.5073 7.67648 15.2591 7.43811C15.011 7.19974 14.887 6.91068 14.887 6.57282V5.37909C14.887 5.24019 14.9257 5.13133 15.0013 5.0525C15.0789 4.97367 15.1797 4.93425 15.3076 4.93425C15.4355 4.93425 15.5344 4.97554 15.6158 5.06C15.6972 5.14446 15.7379 5.24958 15.7379 5.37909V6.57282C15.7379 6.68732 15.7786 6.78305 15.862 6.86188C15.9453 6.94072 16.0442 6.98013 16.1586 6.98013H16.9417C17.0522 6.98013 17.153 6.93883 17.2402 6.85625C17.3274 6.77366 17.372 6.67981 17.372 6.57095V1.95928C17.372 1.82039 17.4108 1.70965 17.4864 1.62706C17.5639 1.54447 17.6647 1.50317 17.7926 1.50317C17.9128 1.50317 18.0136 1.54635 18.0931 1.63082C18.1726 1.71528 18.2133 1.82602 18.2133 1.9574L18.2152 1.96115Z" fill="black"/>
<path d="M21.9641 3.21313H23.4567C23.7959 3.21313 24.0866 3.32763 24.3289 3.55474C24.5712 3.78185 24.6972 4.06902 24.7108 4.41814L24.8232 7.33305V7.35181C24.8232 7.47757 24.7825 7.58456 24.7031 7.66902C24.6236 7.75348 24.5267 7.79665 24.4123 7.79665C24.2979 7.79665 24.1991 7.76099 24.1235 7.68966C24.0479 7.61834 24.0014 7.51886 23.982 7.38935L23.4915 7.68778C23.4392 7.71969 23.3772 7.74598 23.3074 7.76662C23.2376 7.78727 23.1737 7.79665 23.1194 7.79665H21.9253C21.5783 7.79665 21.2837 7.6784 21.0395 7.44378C20.7952 7.20916 20.6731 6.92387 20.6731 6.59353V6.1393C20.6731 5.80708 20.7972 5.52178 21.0453 5.28341C21.2934 5.04503 21.5861 4.92491 21.9272 4.92491H23.5323C23.6001 4.92491 23.666 4.93054 23.7261 4.9418C23.7862 4.95306 23.8443 4.96996 23.9006 4.99248L23.8715 4.41814C23.8657 4.30176 23.825 4.20792 23.7494 4.13659C23.6738 4.06527 23.5788 4.0296 23.4605 4.0296H21.968C21.8284 4.0296 21.7179 3.99394 21.6384 3.92074C21.559 3.84754 21.5182 3.74806 21.5182 3.62231C21.5182 3.49655 21.559 3.40458 21.6423 3.32763C21.7257 3.25255 21.8342 3.21313 21.968 3.21313H21.9641ZM21.9156 5.73951C21.8109 5.73951 21.7179 5.77892 21.6365 5.85775C21.5551 5.93659 21.5144 6.03043 21.5144 6.13742V6.59165C21.5144 6.69676 21.5551 6.78686 21.6345 6.86381C21.714 6.94077 21.8109 6.98018 21.9253 6.98018H23.0457L23.951 6.48654L23.9413 6.12616C23.9413 6.01542 23.9006 5.92345 23.8191 5.84837C23.7377 5.77329 23.6408 5.73764 23.5303 5.73764H21.9156V5.73951Z" fill="black"/>
<path d="M31.0204 1.96119V7.34054C31.0204 7.4738 30.9797 7.58267 30.8983 7.66713C30.8169 7.75159 30.7142 7.79476 30.5901 7.79476C30.466 7.79476 30.3614 7.75347 30.2838 7.67089C30.2063 7.5883 30.1695 7.47756 30.1695 7.33866V7.24857L29.8554 7.51322C29.7508 7.60143 29.6287 7.67089 29.4852 7.71969C29.3437 7.76849 29.1983 7.79288 29.0529 7.79288H28.4016C28.2582 7.79288 28.1186 7.76848 27.9829 7.72156C27.8472 7.67463 27.7193 7.60519 27.5991 7.51322L27.3103 7.29924C27.1727 7.19413 27.0641 7.05899 26.9827 6.89007C26.9013 6.72114 26.8606 6.54659 26.8606 6.3664V4.59832C26.8606 4.44065 26.9032 4.27548 26.9905 4.10468C27.0777 3.93387 27.1843 3.80061 27.3103 3.70676L27.5991 3.49279C27.7232 3.39894 27.8511 3.32761 27.9829 3.27881C28.1148 3.23189 28.2543 3.20749 28.4016 3.20749H29.0529C29.2003 3.20749 29.3437 3.23377 29.4852 3.28257C29.6267 3.33325 29.7508 3.40269 29.8554 3.49091L30.1695 3.75181V1.95556C30.1695 1.8223 30.2082 1.71344 30.2877 1.62897C30.3652 1.54451 30.468 1.50134 30.592 1.50134C30.7161 1.50134 30.8188 1.54263 30.9002 1.6271C30.9817 1.71156 31.0224 1.82042 31.0224 1.95556L31.0204 1.96119ZM28.4016 4.02771C28.3144 4.02771 28.2214 4.06338 28.1283 4.13658C28.1225 4.14033 28.1167 4.14221 28.1128 4.14596L27.8337 4.35994C27.7968 4.38809 27.7678 4.42751 27.7465 4.47819C27.7232 4.52886 27.7116 4.57954 27.7116 4.63022V6.37016C27.7116 6.42459 27.7232 6.47714 27.7465 6.53157C27.7697 6.58601 27.7988 6.62542 27.8337 6.64982L28.1128 6.8638C28.1128 6.8638 28.1186 6.86943 28.1225 6.87318C28.2194 6.94638 28.3125 6.98204 28.4016 6.98204H29.0529C29.1014 6.98204 29.1499 6.97266 29.1983 6.95389C29.2448 6.93512 29.2952 6.90509 29.3476 6.8638L30.057 6.30446C30.09 6.28006 30.1171 6.24064 30.1385 6.18621C30.1598 6.13178 30.1695 6.07735 30.1695 6.02104V4.98309C30.1695 4.92678 30.1598 4.87235 30.1385 4.81979C30.1171 4.76724 30.09 4.7297 30.057 4.70342L29.3476 4.14972C29.2991 4.10843 29.2507 4.0784 29.2061 4.05963C29.1596 4.04086 29.1092 4.03147 29.0549 4.03147H28.4036L28.4016 4.02771Z" fill="black"/>
<path d="M34.6724 3.21313H35.6028C35.7424 3.21313 35.882 3.23753 36.0215 3.28633C36.1611 3.33513 36.289 3.40646 36.4053 3.49656L36.7678 3.77622C36.9055 3.88696 37.014 4.02585 37.0954 4.1929C37.1768 4.35995 37.2175 4.53263 37.2175 4.70906V5.68132C37.2175 5.79769 37.173 5.8953 37.0857 5.97226C36.9985 6.04921 36.8841 6.08863 36.7484 6.08863H33.9087V6.30259C33.9087 6.3589 33.9222 6.41521 33.9494 6.46776C33.9765 6.5222 34.0133 6.56537 34.0599 6.60103L34.4165 6.89572C34.4553 6.92387 34.496 6.94639 34.5367 6.95953C34.5774 6.97454 34.6259 6.98018 34.6821 6.98018H36.7484C36.888 6.98018 37.0024 7.01772 37.0896 7.09467C37.1768 7.16975 37.2195 7.26923 37.2195 7.38935C37.2195 7.50948 37.1749 7.60708 37.0877 7.68404C37.0004 7.75912 36.8861 7.79853 36.7504 7.79853H34.6743C34.5348 7.79853 34.3971 7.77413 34.2634 7.7272C34.1296 7.68028 34.0017 7.61084 33.8815 7.51887L33.519 7.22418C33.3795 7.11344 33.269 6.97642 33.1895 6.81125C33.11 6.64608 33.0693 6.47715 33.0693 6.30447V4.71094C33.0693 4.53451 33.11 4.36183 33.1895 4.19478C33.269 4.02773 33.3795 3.88884 33.519 3.7781L33.8815 3.49842C34.0017 3.40458 34.1296 3.33326 34.2634 3.28446C34.3971 3.23754 34.5348 3.21313 34.6743 3.21313H34.6724ZM34.6821 4.01834C34.6395 4.01834 34.5968 4.02773 34.5522 4.04462C34.5076 4.06152 34.4631 4.08592 34.4185 4.11783L34.0618 4.40687C34.0153 4.44254 33.9784 4.48758 33.9513 4.54201C33.9242 4.59644 33.9106 4.65275 33.9106 4.71094V5.26089H36.3782V4.71094C36.3782 4.65463 36.3646 4.59832 36.3375 4.54201C36.3104 4.48758 36.2755 4.44253 36.2328 4.4125L35.8665 4.11783C35.8238 4.08592 35.7812 4.06152 35.7366 4.04462C35.692 4.02773 35.6494 4.01834 35.6067 4.01834H34.686H34.6821Z" fill="black"/>
<path d="M39.2643 1.50696H43.4164V2.5543C43.4164 2.68944 43.3777 2.80018 43.2982 2.88465C43.2206 2.96911 43.1179 3.0104 42.9939 3.0104C42.8698 3.0104 42.769 2.96723 42.6895 2.88277C42.612 2.7983 42.5713 2.68757 42.5713 2.55618V2.32344H41.7591V7.34241C41.7591 7.47755 41.7203 7.58829 41.6408 7.67088C41.5633 7.75534 41.4606 7.79663 41.3365 7.79663C41.2125 7.79663 41.1117 7.75346 41.0322 7.669C40.9546 7.58453 40.9139 7.4738 40.9139 7.34241V2.32344H40.1017V2.55618C40.1017 2.69132 40.063 2.80206 39.9835 2.88653C39.906 2.97099 39.8032 3.01228 39.6792 3.01228C39.5551 3.01228 39.4543 2.96911 39.3748 2.88465C39.2973 2.80018 39.2566 2.68945 39.2566 2.55806V1.51072L39.2643 1.50696Z" fill="black"/>
<path d="M46.3029 3.6636V4.08967L47.0027 3.49656C47.1073 3.40834 47.2314 3.33888 47.3768 3.28821C47.5222 3.23753 47.6656 3.21313 47.8052 3.21313H48.3576C48.7007 3.21313 48.9954 3.33137 49.2415 3.56787C49.4877 3.80437 49.6118 4.08779 49.6118 4.41626V4.60019C49.6118 4.73533 49.573 4.84607 49.4935 4.92866C49.416 5.01312 49.3133 5.05443 49.1892 5.05443C49.0651 5.05443 48.9643 5.01126 48.8849 4.92679C48.8073 4.84233 48.7666 4.73158 48.7666 4.60019V4.41626C48.7666 4.31115 48.7259 4.21918 48.6445 4.13847C48.5631 4.05776 48.4662 4.01834 48.3557 4.01834H47.8032C47.7567 4.01834 47.7044 4.02961 47.6443 4.05401C47.5842 4.07841 47.5377 4.10468 47.5047 4.13659L46.301 5.16516V7.34055C46.301 7.47569 46.2622 7.58643 46.1827 7.66902C46.1052 7.75348 46.0024 7.79477 45.8784 7.79477C45.7543 7.79477 45.6535 7.7516 45.5741 7.66714C45.4965 7.58268 45.4558 7.47194 45.4558 7.34055V3.66172C45.4558 3.52282 45.4946 3.41208 45.5702 3.33325C45.6477 3.25254 45.7485 3.21313 45.8764 3.21313C46.0044 3.21313 46.1013 3.25442 46.1808 3.33889C46.2583 3.42335 46.299 3.53033 46.299 3.6636H46.3029Z" fill="black"/>
<path d="M52.9516 3.21313H54.4442C54.7834 3.21313 55.0742 3.32763 55.3165 3.55474C55.5588 3.78185 55.6848 4.06902 55.6984 4.41814L55.8108 7.33305V7.35181C55.8108 7.47757 55.7701 7.58456 55.6906 7.66902C55.6111 7.75348 55.5142 7.79665 55.3998 7.79665C55.2855 7.79665 55.1866 7.76099 55.111 7.68966C55.0354 7.61834 54.9889 7.51886 54.9695 7.38935L54.4791 7.68778C54.4268 7.71969 54.3647 7.74598 54.2949 7.76662C54.2252 7.78727 54.1612 7.79665 54.1069 7.79665H52.9129C52.5659 7.79665 52.2712 7.6784 52.027 7.44378C51.7828 7.20916 51.6606 6.92387 51.6606 6.59353V6.1393C51.6606 5.80708 51.7847 5.52178 52.0328 5.28341C52.2809 5.04503 52.5736 4.92491 52.9148 4.92491H54.5198C54.5876 4.92491 54.6536 4.93054 54.7136 4.9418C54.7737 4.95306 54.8319 4.96996 54.8881 4.99248L54.859 4.41814C54.8532 4.30176 54.8125 4.20792 54.7369 4.13659C54.6613 4.06527 54.5663 4.0296 54.4481 4.0296H52.9555C52.8159 4.0296 52.7054 3.99394 52.626 3.92074C52.5465 3.84754 52.5058 3.74806 52.5058 3.62231C52.5058 3.49655 52.5465 3.40458 52.6299 3.32763C52.7132 3.25255 52.8218 3.21313 52.9555 3.21313H52.9516ZM52.9032 5.73951C52.7985 5.73951 52.7054 5.77892 52.624 5.85775C52.5426 5.93659 52.5019 6.03043 52.5019 6.13742V6.59165C52.5019 6.69676 52.5426 6.78686 52.6221 6.86381C52.7016 6.94077 52.7985 6.98018 52.9129 6.98018H54.0333L54.9385 6.48654L54.9288 6.12616C54.9288 6.01542 54.8881 5.92345 54.8067 5.84837C54.7253 5.77329 54.6284 5.73764 54.5179 5.73764H52.9032V5.73951Z" fill="black"/>
<path d="M58.7183 3.38952L59.9414 4.816L61.1355 3.38952C61.182 3.33321 61.2363 3.29004 61.3003 3.26001C61.3642 3.22998 61.4282 3.21497 61.4941 3.21497C61.6085 3.21497 61.7054 3.25437 61.7849 3.3332C61.8643 3.41204 61.9051 3.50589 61.9051 3.61288C61.9051 3.66731 61.8954 3.71799 61.876 3.76679C61.8566 3.81559 61.8275 3.86627 61.7888 3.91694L60.4823 5.44853L61.8779 7.10213C61.9206 7.14717 61.9516 7.19223 61.971 7.23727C61.9903 7.28232 62 7.33488 62 7.39119C62 7.50193 61.9593 7.59577 61.8799 7.67273C61.8004 7.74968 61.7035 7.7891 61.5891 7.7891C61.5232 7.7891 61.4592 7.77408 61.3933 7.74218C61.3274 7.71027 61.2731 7.6671 61.2266 7.61454L59.9337 6.09233L58.6311 7.61454C58.5787 7.67461 58.5225 7.71965 58.4624 7.7478C58.4023 7.77595 58.3384 7.79097 58.2686 7.79097C58.1504 7.79097 58.0534 7.75343 57.974 7.68023C57.8964 7.60515 57.8557 7.51319 57.8557 7.40245C57.8557 7.34802 57.8654 7.29545 57.8867 7.2429C57.9081 7.19034 57.9371 7.14342 57.972 7.10213L59.3871 5.45792L58.0651 3.91694C58.0224 3.86627 57.9914 3.81559 57.972 3.76303C57.9526 3.71048 57.9429 3.65229 57.9429 3.58472C57.9429 3.49275 57.9836 3.40829 58.067 3.33134C58.1504 3.25438 58.2415 3.21497 58.3442 3.21497C58.4159 3.21497 58.4838 3.22998 58.5477 3.26001C58.6117 3.29004 58.6679 3.33321 58.7164 3.38952H58.7183Z" fill="black"/>
<path d="M5.3402 0.0148298C7.72832 -0.137203 10.603 0.876357 11.4772 3.21129C11.8067 4.0897 11.7544 5.63818 11.7079 6.59543C11.4578 11.8152 2.39187 12.5135 0.375922 8.05758C-0.0660366 7.07969 -0.0253305 5.37541 0.0405755 4.29616C0.197587 1.69658 2.89198 0.170617 5.3402 0.0148298ZM10.95 4.28115C10.4983 1.05842 6.33266 0.123694 3.59369 1.12974C1.75607 1.80544 0.265432 3.49095 0.990398 5.48615C1.77158 7.63902 4.94088 8.6338 7.06926 8.06884C7.96287 7.83234 9.16468 7.12473 8.70916 6.068C8.67814 6.04173 8.19936 6.36269 8.11794 6.40398C6.64087 7.14726 4.45434 7.06279 3.11102 6.08114C1.69792 5.04882 1.96736 3.54163 3.39403 2.69137C5.2394 1.59147 8.14508 2.03068 9.84119 3.23381C10.2618 3.53224 10.6146 3.89825 10.95 4.28115ZM9.88384 4.22859C8.48818 2.8922 5.60382 2.31034 3.86506 3.2751C3.26997 3.60544 2.63805 4.26801 3.09164 4.94935C4.61135 3.86259 7.10027 3.82505 8.62193 4.92494C10.0486 5.95539 9.80242 7.46634 8.3583 8.32786C6.91419 9.18938 4.89824 9.08052 3.35526 8.52682C2.35116 8.16644 1.46337 7.56957 0.817879 6.73995C0.916739 8.26592 2.21547 9.39397 3.61889 9.89887C5.3053 10.5051 7.39879 10.4038 8.96309 9.5216C11.0469 8.34663 11.7079 5.97604 9.88577 4.23047L9.88384 4.22859ZM5.50496 4.86488C4.83233 4.91556 4.14613 5.1239 3.60144 5.50867C4.89242 6.38897 6.85797 6.38897 8.14702 5.50867C7.40848 4.985 6.40826 4.79543 5.50496 4.86488Z" fill="black"/>
</svg>
