<svg xmlns="http://www.w3.org/2000/svg" width="84" height="16" viewBox="0 0 84 16" fill="none">
<svg x="18.892" y="3.232" width="10.542" height="10.267" viewBox="0 0 65.7659 64.1712" preserveAspectRatio="none"><path id="Vector" d="M0.0181124 64.1712V0H10.2029L35.4835 39.3506H30.3005L55.4905 0H65.7659V64.1712H51.4855V24.0959L54.0226 24.73L37.5676 50.3659H28.1077L11.7433 24.73L14.1898 24.0959V64.1712H0H0.0181124Z" fill="#030303"/></svg>
<svg x="30.887" y="6.432" width="6.636" height="7.227" viewBox="0 0 41.3732 45.1662" preserveAspectRatio="none"><path id="Vector" d="M20.7138 45.1662C16.6544 45.1662 13.0481 44.351 9.89478 42.7204C6.79587 41.0174 4.3856 38.7165 2.62773 35.8178C0.869866 32.8465 0 29.4586 0 25.6358V0H13.9179V25.4547C13.9179 26.9766 14.1535 28.281 14.6428 29.368C15.1865 30.455 15.9839 31.3066 16.9987 31.9044C18.0317 32.5023 19.264 32.8103 20.7319 32.8103C22.7979 32.8103 24.4289 32.1762 25.6431 30.908C26.8573 29.5673 27.4553 27.7556 27.4553 25.4547V0H41.3732V25.5453C41.3732 29.4224 40.4853 32.8465 38.7455 35.8178C36.9876 38.7346 34.5593 41.0355 31.4785 42.7204C28.3795 44.351 24.8094 45.1662 20.75 45.1662H20.7138Z" fill="#030303"/></svg>
<svg x="38.119" y="6.235" width="6.266" height="7.438" viewBox="0 0 39.0717 46.4888" preserveAspectRatio="none"><path id="Vector" d="M20.1701 46.4888C17.5605 46.4888 14.9871 46.1626 12.45 45.4923C9.96727 44.822 7.62949 43.8799 5.45481 42.666C3.3345 41.3978 1.52227 39.9303 0 38.2998L7.90133 30.3101C9.35112 31.8863 11.0909 33.1364 13.0843 34.0423C15.0778 34.8938 17.2706 35.3104 19.6265 35.3104C21.2575 35.3104 22.5079 35.0749 23.3597 34.5858C24.2658 34.0966 24.7188 33.4262 24.7188 32.5929C24.7188 31.5058 24.1752 30.6905 23.0878 30.147C22.0549 29.5492 20.7319 29.0238 19.0828 28.6071C17.4518 28.1179 15.712 27.6106 13.8998 27.0671C12.0876 26.5236 10.3478 25.7627 8.71683 24.8025C7.08582 23.8241 5.74479 22.5016 4.71181 20.7986C3.67884 19.0412 3.17141 16.8309 3.17141 14.1677C3.17141 11.3233 3.89629 8.85934 5.34608 6.81209C6.79586 4.69238 8.86181 3.02558 11.5258 1.81172C14.1898 0.597868 17.3068 0 20.895 0C24.6463 0 28.1077 0.670348 31.261 1.9929C34.4686 3.26111 37.0783 5.18154 39.0717 7.71795L31.1704 15.7076C29.775 14.077 28.1983 12.9176 26.4405 12.2473C24.737 11.5769 23.0697 11.2508 21.4387 11.2508C19.8077 11.2508 18.6841 11.4863 17.8867 11.9755C17.1075 12.3921 16.7088 13.0444 16.7088 13.8778C16.7088 14.7837 17.2162 15.5083 18.2492 16.0518C19.2822 16.5953 20.6051 17.0845 22.2542 17.5012C23.9033 17.9179 25.625 18.4433 27.4372 19.0412C29.2494 19.6391 30.9892 20.4724 32.6202 21.487C34.2512 22.5197 35.5922 23.9147 36.6252 25.6721C37.6582 27.3751 38.1656 29.6035 38.1656 32.3936C38.1656 36.6874 36.5346 40.1115 33.2545 42.666C30.0468 45.2024 25.6793 46.4888 20.1701 46.4888Z" fill="#030303"/></svg>
<svg x="44.839" y="6.267" width="7.384" height="7.392" viewBox="0 0 46.0126 46.1989" preserveAspectRatio="none"><path id="Vector" d="M24.737 46.1989C19.9527 46.1989 15.6758 45.2206 11.9245 43.2821C8.22754 41.2892 5.30986 38.5172 3.18955 35.0025C1.06923 31.4877 0 27.5201 0 23.0995C0 18.6789 1.03298 14.7293 3.09893 11.287C5.21924 7.77231 8.06445 5.01848 11.6527 3.00746C15.2228 1.01457 19.264 0 23.7402 0C28.2165 0 31.9497 0.942091 35.2842 2.82628C38.6187 4.71047 41.2283 7.3194 43.0949 10.6349C45.034 13.9684 46.0126 17.7911 46.0126 22.0849C46.0126 22.8639 45.9582 23.7155 45.8314 24.6213C45.777 25.4729 45.6139 26.4693 45.3783 27.6288L7.28518 27.7194V18.1716L39.4704 18.081L33.4719 22.0849C33.4176 19.5485 33.0189 17.4469 32.294 15.8164C31.5691 14.1133 30.4818 12.8452 29.0139 11.9936C27.6184 11.0878 25.8968 10.6349 23.8309 10.6349C21.6562 10.6349 19.7352 11.1421 18.1042 12.1748C16.5276 13.1531 15.2771 14.53 14.371 16.3598C13.5193 18.1716 13.1025 20.3819 13.1025 22.9908C13.1025 25.5996 13.5555 27.8462 14.4616 29.7123C15.4402 31.524 16.7631 32.9552 18.4666 33.9879C20.2245 34.9662 22.2905 35.4373 24.6464 35.4373C26.821 35.4373 28.7964 35.075 30.5542 34.3503C32.3121 33.5712 33.8525 32.4117 35.1935 30.8899L42.823 38.5172C40.6484 41.0536 38.0025 42.9741 34.9217 44.2423C31.8409 45.5105 28.4339 46.1446 24.737 46.1446V46.1989Z" fill="#030303"/></svg>
<svg x="53.147" y="6.290" width="6.913" height="7.213" viewBox="0 0 43.0949 45.0756" preserveAspectRatio="none"><path id="Vector" d="M29.1951 45.0575V19.8746C29.1951 17.5737 28.4701 15.7257 27.0204 14.3307C25.6249 12.8813 23.8308 12.1566 21.6562 12.1566C20.1339 12.1566 18.8109 12.4828 17.6511 13.1531C16.4913 13.751 15.5852 14.6749 14.9147 15.8888C14.2441 17.0483 13.9179 18.3708 13.9179 19.8927L8.55374 17.2657C8.55374 13.8053 9.31487 10.7798 10.819 8.17088C12.3413 5.562 14.4254 3.56906 17.0893 2.17403C19.8258 0.724655 22.8704 0 26.2774 0C29.6844 0 32.4389 0.779018 34.9217 2.35522C37.4588 3.87706 39.4704 5.90622 40.9202 8.44263C42.37 10.979 43.0949 13.7691 43.0949 16.8128V45.0756H29.1769L29.1951 45.0575ZM0 45.0575V0.887726H13.9179V45.0575H0Z" fill="#030303"/></svg>
<svg x="60.883" y="6.267" width="7.762" height="7.392" viewBox="0 0 48.3866 46.1989" preserveAspectRatio="none"><path id="Vector" d="M24.1933 46.1989C19.6446 46.1989 15.5308 45.2025 11.8339 43.1915C8.19129 41.1261 5.30986 38.336 3.18955 34.8213C1.06923 31.3066 0 27.3751 0 23.0089C0 18.6426 1.06923 14.7293 3.18955 11.287C5.30986 7.82666 8.19129 5.1091 11.8339 3.09808C15.4765 1.03272 19.5902 0 24.1933 0C28.7964 0 32.9283 0.996454 36.5527 3.00746C40.1953 5.00036 43.0768 7.77231 45.1971 11.287C47.3174 14.7474 48.3866 18.6426 48.3866 23.0089C48.3866 27.3751 47.3174 31.3066 45.1971 34.8213C43.0768 38.336 40.1953 41.1261 36.5527 43.1915C32.9101 45.1844 28.7964 46.1989 24.1933 46.1989ZM24.1933 33.5712C26.1868 33.5712 27.9446 33.1545 29.4669 32.303C30.9892 31.3972 32.1309 30.1471 32.9283 28.5709C33.78 26.9403 34.1968 25.0924 34.1968 23.027C34.1968 20.9617 33.78 19.1861 32.9283 17.6643C32.0765 16.0881 30.8986 14.8743 29.3763 14.0228C27.9265 13.1169 26.1868 12.664 24.1933 12.664C22.1999 12.664 20.5326 13.1169 19.0103 14.0228C17.488 14.8743 16.3101 16.0881 15.4583 17.6643C14.6066 19.2405 14.1898 21.0522 14.1898 23.1176C14.1898 25.183 14.6066 26.9403 15.4583 28.5709C16.3101 30.1471 17.488 31.3972 19.0103 32.303C20.5326 33.1545 22.2542 33.5712 24.1933 33.5712Z" fill="#030303"/></svg>
<svg x="68.636" y="6.432" width="7.804" height="7.067" viewBox="0 0 48.6403 44.1698" preserveAspectRatio="none"><path id="Vector" d="M18.7204 44.1698L0 0H15.0053L27.7271 36.8142H21.185L33.9068 0H48.6403L29.9199 44.1698H18.7385H18.7204Z" fill="#030303"/></svg>
<svg x="76.457" y="6.282" width="7.543" height="7.363" viewBox="0 0 47.0274 46.0177" preserveAspectRatio="none"><path id="Vector" d="M21.185 46.0177C17.1256 46.0177 13.483 45.0213 10.2754 43.0103C7.1221 41.0174 4.60309 38.2817 2.73649 34.8213C0.924256 31.3609 0 27.4294 0 23.0088C0 18.5882 0.906134 14.6387 2.73649 11.1964C4.62121 7.73604 7.1221 5.01848 10.2754 3.00746C13.483 1.01457 17.1256 0 21.185 0C24.1571 0 26.821 0.579718 29.1769 1.7211C31.6053 2.8806 33.5626 4.47493 35.0848 6.54029C36.6071 8.53318 37.4407 10.8341 37.6219 13.4429V32.5385C37.4407 35.1474 36.589 37.4845 35.0848 39.5318C33.6351 41.5247 31.6959 43.1008 29.2675 44.2603C26.8391 45.4198 24.1389 45.9815 21.1669 45.9815L21.185 46.0177ZM24.0121 33.4806C26.9841 33.4806 29.3763 32.5023 31.1885 30.5637C33.0007 28.5708 33.925 26.0525 33.925 23.027C33.925 20.9616 33.5081 19.1499 32.6564 17.5737C31.8771 15.9975 30.7174 14.7837 29.1951 13.9321C27.7453 13.0263 26.0417 12.5734 24.1027 12.5734C22.1636 12.5734 20.442 13.0263 18.9197 13.9321C17.4699 14.7837 16.292 15.9975 15.3677 17.5737C14.516 19.1499 14.0992 20.9616 14.0992 23.027C14.0992 25.0923 14.516 26.8134 15.3677 28.3896C16.2195 29.9658 17.3974 31.2159 18.9197 32.1218C20.442 33.0276 22.1274 33.4806 24.0121 33.4806ZM33.3813 45.1119V33.2088L35.4654 22.4835L33.3813 11.7581V0.942075H47.0274V45.1119H33.3813Z" fill="#030303"/></svg>
<svg x="0.000" y="0.656" width="11.172" height="15.344" viewBox="0 0 69.6652 95.9025" preserveAspectRatio="none"><path id="Vector" d="M34.1818 79.1693L34.3992 56.5952L48.1359 56.559V95.8914C28.7632 96.3262 11.1483 83.916 3.95372 66.9945C-4.25569 47.6816 0.727948 26.575 15.1171 13.0595C29.5062 -0.455932 51.7785 -4.26051 69.6652 5.34161L62.7606 17.154C45.2364 8.94692 25.1568 16.4837 17.183 33.2783C9.20919 50.073 15.8601 70.9441 34.1455 79.1693H34.1818Z" fill="#030303"/></svg>
<svg x="10.643" y="0.000" width="4.981" height="14.619" viewBox="0 0 31.0435 91.3651" preserveAspectRatio="none"><path id="Vector" d="M22.5079 66.9069C22.4535 76.9438 17.0531 86.0205 8.86181 91.3651L8.78932 27.0853L0 26.7954L15.4765 0L31.0435 26.6142L22.7073 27.194L22.5079 66.8888V66.9069Z" fill="#030303"/></svg>
<svg x="8.778" y="7.490" width="2.218" height="8.438" viewBox="0 0 13.8273 52.7393" preserveAspectRatio="none"><path id="Vector" d="M13.8273 48.6085C9.38736 50.7645 4.96552 52.0689 0 52.7393V0H13.8092V48.5904L13.8273 48.6085Z" fill="#030303"/></svg>
</svg>
