<svg preserveAspectRatio="none" width="100%" height="100%" overflow="visible" style="display: block;" viewBox="0 0 87 20" fill="none" xmlns="http://www.w3.org/2000/svg">
<g id="Revolut 1" clip-path="url(#clip0_0_98)">
<path id="Vector" d="M56.3563 7.132C54.8921 5.8424 53.1242 5.212 51.0805 5.212C49.0647 5.212 47.2968 5.8432 45.8318 7.132C44.3675 8.3936 43.6231 10.1496 43.6231 12.3992C43.6231 14.6488 44.3675 16.4032 45.8318 17.6928C47.296 18.9544 49.0647 19.5856 51.0805 19.5856C53.1242 19.5856 54.8921 18.9544 56.3563 17.6928C57.8484 16.4032 58.5929 14.648 58.5929 12.3992C58.5929 10.1504 57.8476 8.3936 56.3563 7.132ZM48.3195 15.2784C47.5471 14.5384 47.1581 13.5776 47.1581 12.3984C47.1581 11.2192 47.5439 10.2592 48.3195 9.5456C48.6791 9.18976 49.1093 8.90901 49.5838 8.72045C50.0584 8.53189 50.5673 8.43946 51.0797 8.4488C51.5963 8.43937 52.1096 8.53164 52.5888 8.7201C53.068 8.90856 53.5033 9.18933 53.8686 9.5456C54.668 10.2592 55.0571 11.2184 55.0571 12.3984C55.0571 13.5784 54.6713 14.5376 53.8686 15.2784C53.0963 15.9912 52.1565 16.348 51.0797 16.348C50.57 16.3559 50.0637 16.2655 49.59 16.0819C49.1163 15.8983 48.6845 15.6253 48.3195 15.2784ZM63.8161 19.2008V0.3784H60.3361V19.2008H63.8161ZM75.0482 5.596V13.1064C75.0482 14.916 74.0633 16.116 72.1887 16.116C70.2821 16.116 69.3234 14.9176 69.3234 13.1064V5.596H65.8368V13.6824C65.8368 16.8152 67.8255 19.5848 72.1887 19.5848H72.2157C76.5518 19.5848 78.5372 16.7536 78.5372 13.6824V5.596H75.0482ZM39.9199 5.596L36.4399 14.812L32.9599 5.596H29.2591L34.8123 19.2016H38.0724L43.6248 5.596H39.9199ZM29.2755 12.0144C29.2755 10.04 28.6411 8.4216 27.3976 7.132C26.1542 5.8424 24.5545 5.212 22.5929 5.212C20.5771 5.212 18.8634 5.8984 17.455 7.2416C16.0728 8.5864 15.3842 10.2864 15.3842 12.3984C15.3842 14.5104 16.0745 16.2392 17.4279 17.5824C18.8101 18.9272 20.4672 19.5848 22.4279 19.5848C25.4401 19.5848 27.5659 18.268 28.8618 15.6072L26.2666 14.1256C25.4122 15.7984 24.1671 16.6216 22.4829 16.6216C20.4122 16.6216 18.9479 15.3048 18.7263 13.2208H29.2747V12.0136L29.2755 12.0144ZM22.4805 7.8448C24.4413 7.8448 25.7405 8.9416 26.0713 10.6976H18.7247C19.2508 9.0792 20.6855 7.8448 22.4813 7.8448H22.4805ZM15.3834 19.2008L10.7141 11.0824C13.668 10.0128 15.1323 8.148 15.1323 5.432C15.1355 2.1128 12.482 0 8.25679 0H0V19.2008H3.64579V11.4112H6.74004L11.2132 19.2016L15.3834 19.2008ZM8.25679 3.1816C10.4113 3.1816 11.4889 4.032 11.4889 5.7048C11.4889 7.3776 10.4105 8.228 8.25679 8.228H3.64579V3.1816H8.25679ZM84.4368 19.5848C82.1969 19.5848 80.3806 17.78 80.3806 15.5528V1.92H83.8606V5.6008H86.8449V8.3984H83.8606V15.3304C83.8606 15.9832 84.3933 16.512 85.0515 16.512H86.8449V19.5848H84.4368Z" fill="var(--fill-0, black)"/>
</g>
<defs>
<clipPath id="clip0_0_98">
<rect width="87" height="20" fill="white"/>
</clipPath>
</defs>
</svg>
