<svg preserveAspectRatio="none" width="100%" height="100%" overflow="visible" style="display: block;" viewBox="0 0 54.2785 13.5518" fill="none" xmlns="http://www.w3.org/2000/svg">
<g id="Group">
<path id="Vector" d="M4.4078 0C6.86278 0 8.81559 1.99597 8.81559 4.5052C8.81559 7.01465 6.86278 9.0104 4.4078 9.0104C1.95261 9.0104 0 7.01465 0 4.5052C0 1.99597 1.95261 0 4.4078 0ZM2.20864 2.62554V3.37142H6.60695V2.62554H2.20864ZM6.60695 6.38486V4.1272H2.20864V6.38465H2.9386V5.53194C2.9386 5.28985 2.9955 5.15415 3.08063 5.05723C3.17546 4.94114 3.3177 4.87329 3.48839 4.87329C3.65908 4.87329 3.80111 4.94114 3.89594 5.05723C3.98128 5.15415 4.03818 5.28985 4.03818 5.53194V6.38465H4.77762V5.53194C4.77762 5.28985 4.83452 5.15415 4.91987 5.05723C5.01469 4.94114 5.15694 4.87329 5.32741 4.87329C5.49789 4.87329 5.64013 4.94114 5.73496 5.05723C5.82031 5.15415 5.8772 5.28985 5.8772 5.53194V6.38465L6.60695 6.38486Z" fill="var(--fill-0, #FA5B35)"/>
<path id="Vector_2" d="M11.4992 2.80969C11.4992 3.62342 12.6367 3.78818 13.4898 4.29197C14.0206 4.60191 14.4566 5.10591 14.4566 5.9584C14.4566 7.17898 13.4803 7.94468 12.3997 7.94468C11.319 7.94468 10.5417 7.4116 10.2384 7.07258L10.6649 6.15203H10.7029C11.063 6.51065 11.6128 6.84966 12.3238 6.84966C12.7884 6.84966 13.2906 6.56858 13.2906 6.01634C13.2906 5.19292 12.1531 5.02815 11.3001 4.52437C10.7693 4.21443 10.3333 3.71065 10.3333 2.85794C10.3333 1.63714 11.319 0.871662 12.4186 0.871662C13.4518 0.871662 14.1533 1.40474 14.4566 1.69529L14.0301 2.61563H13.9921C13.6225 2.2764 13.1581 1.96625 12.5134 1.96625C12.0016 1.96668 11.4992 2.24775 11.4992 2.80969ZM14.6273 3.92388H15.7458L16.4092 5.89077H16.4471L17.3855 3.14892H18.1439L19.1297 5.91985H19.1676L20.1155 3.14892H21.1771L19.5562 7.79929H18.8167L17.7741 4.87351H17.7361L16.7314 7.79929H15.973L14.6273 3.92388ZM21.642 1.21111H22.77V2.32529H21.642V1.21111ZM21.6609 3.14871H22.751V7.79908H21.6609V3.14871ZM25.2914 7.94468C24.6467 7.94468 24.0211 7.69268 23.5851 7.26665L23.8883 6.43311H23.9263C24.2674 6.74305 24.7034 6.98557 25.2058 6.98557C25.5849 6.98557 25.8315 6.8208 25.8315 6.53003C25.8315 6.22957 25.5185 6.11326 25.1299 5.98726C24.5043 5.78394 23.6797 5.47378 23.6797 4.50498C23.6797 3.61351 24.3623 3.00311 25.3386 3.00311C25.8694 3.00311 26.4097 3.19674 26.8552 3.55535L26.5519 4.39815H26.514C26.1916 4.13646 25.7746 3.96221 25.4239 3.96221C24.9974 3.96221 24.7508 4.12698 24.7508 4.41754C24.7508 4.718 25.0636 4.83431 25.4524 4.96031C26.078 5.16363 26.9026 5.47378 26.9026 6.44258C26.9028 7.33428 26.2205 7.94468 25.2914 7.94468ZM29.1873 7.94468C28.5427 7.94468 27.917 7.69268 27.481 7.26665L27.7843 6.43311H27.8222C28.1634 6.74305 28.5994 6.98557 29.102 6.98557C29.4811 6.98557 29.7276 6.8208 29.7276 6.53003C29.7276 6.22957 29.4149 6.11326 29.0261 5.98726C28.4004 5.78394 27.5759 5.47378 27.5759 4.50498C27.5759 3.61351 28.2584 3.00311 29.2347 3.00311C29.7655 3.00311 30.3058 3.19674 30.7513 3.55535L30.4481 4.39815H30.4102C30.0877 4.13646 29.6707 3.96221 29.3198 3.96221C28.8933 3.96221 28.647 4.12698 28.647 4.41754C28.647 4.718 28.9597 4.83431 29.3483 4.96031C29.9742 5.16363 30.7987 5.47378 30.7987 6.44258C30.7987 7.33428 30.1164 7.94468 29.1873 7.94468ZM35.8132 3.14871V9.83403H34.7231V7.46006C34.4104 7.76052 33.9552 7.94468 33.5192 7.94468C32.2302 7.94468 31.4054 6.92698 31.4054 5.52225C31.4054 4.20474 32.2871 3.00332 33.633 3.00332C34.0501 3.00332 34.4576 3.16809 34.7798 3.42957H34.818V3.14849L35.8132 3.14871ZM34.7231 4.35982C34.4955 4.14658 34.1354 4.0208 33.8037 4.0208C33.0266 4.0208 32.524 4.64089 32.524 5.51277C32.524 6.29763 32.96 6.9272 33.7373 6.9272C34.1072 6.9272 34.4578 6.78203 34.7233 6.49148L34.7231 4.35982ZM37.8227 5.92932C37.8227 6.3364 37.8891 6.51065 38.0029 6.65603C38.1449 6.83049 38.3725 6.94637 38.6285 6.94637C38.8844 6.94637 39.112 6.83028 39.2542 6.65603C39.368 6.51065 39.4342 6.3364 39.4342 5.92932V3.14871H40.5243V5.81301C40.5243 6.5688 40.3253 7.04351 39.9842 7.38274C39.6428 7.73145 39.1594 7.94468 38.5811 7.94468C38.0503 7.94468 37.5859 7.74114 37.2542 7.40191C36.9223 7.06289 36.7326 6.57828 36.7326 5.81301V3.14871H37.8227V5.92932ZM41.2732 5.52246C41.2732 4.04018 42.2592 3.00354 43.643 3.00354C45.0269 3.00354 46.0127 4.04018 46.0127 5.42575C46.0127 6.90803 45.0269 7.94489 43.643 7.94489C42.2592 7.94489 41.2732 6.90782 41.2732 5.52246ZM43.643 4.0208C42.9131 4.0208 42.3917 4.65058 42.3917 5.474C42.3917 6.29742 42.9133 6.9272 43.643 6.9272C44.3728 6.9272 44.8943 6.29763 44.8943 5.474C44.8943 4.65037 44.373 4.0208 43.643 4.0208ZM49.7097 6.88843V7.75061C49.4157 7.8764 49.0935 7.94446 48.7332 7.94446C48.2498 7.94446 47.8896 7.79886 47.6431 7.54686C47.3775 7.27591 47.2448 6.87852 47.2448 6.17141V4.11729H46.2023V3.14849H47.2448V1.59858H48.3351V3.14871H49.7095V4.11751H48.3351V6.3168C48.3351 6.55911 48.3825 6.6948 48.4582 6.78181C48.5909 6.93668 48.809 6.97588 49.0459 6.97588C49.2924 6.97588 49.5862 6.91751 49.6715 6.88843H49.7097ZM52.3828 7.94468C51.0558 7.94468 50.0603 6.98557 50.0603 5.52225C50.0603 4.18535 50.8565 3.00332 52.269 3.00332C53.4729 3.00332 54.2785 3.98182 54.2785 5.32861V5.69671H51.1978C51.2263 6.42342 51.7192 6.96618 52.4397 6.96618C52.9041 6.96618 53.3308 6.77212 53.7192 6.4428H53.7571L54.1649 7.21775C53.7384 7.68298 53.1032 7.94468 52.3828 7.94468ZM53.1886 4.82483C53.1791 4.38889 52.8472 3.95274 52.2881 3.95274C51.7384 3.95274 51.3687 4.33074 51.2549 4.82483H53.1886Z" fill="var(--fill-0, #323232)"/>
<path id="Vector_3" d="M10.2388 11.855H11.4925V12.1162H11.0051V13.5162H10.7265V12.1162H10.2391L10.2388 11.855Z" fill="var(--fill-0, #323232)"/>
<path id="Vector_4" d="M12.8165 12.7921H12.0155V13.516H11.7369V11.8548H12.0155V12.5313H12.8165V11.8548H13.0951V13.516H12.8165V12.7921Z" fill="var(--fill-0, #323232)"/>
<path id="Vector_5" d="M13.4904 11.855H14.4422V12.1111H13.769V12.5313H14.4075V12.7803H13.769V13.2599H14.4422V13.516H13.4904V11.855Z" fill="var(--fill-0, #323232)"/>
<path id="Vector_6" d="M15.525 12.2942C15.525 12.4936 15.8035 12.5339 16.0124 12.6573C16.1424 12.7331 16.2492 12.8567 16.2492 13.0654C16.2492 13.3646 16.0101 13.5518 15.7454 13.5518C15.4807 13.5518 15.2904 13.4215 15.216 13.3386L15.3206 13.113H15.3298C15.4179 13.2009 15.5528 13.2838 15.7268 13.2838C15.8406 13.2838 15.9637 13.2149 15.9637 13.0799C15.9637 12.8778 15.6851 12.838 15.4761 12.7144C15.3461 12.6386 15.2392 12.5149 15.2392 12.3062C15.2392 12.007 15.4807 11.8199 15.75 11.8199C16.0031 11.8199 16.1748 11.9502 16.2492 12.0215L16.1447 12.247H16.1354C16.0448 12.1641 15.9312 12.088 15.7732 12.088C15.648 12.0876 15.525 12.1565 15.525 12.2942Z" fill="var(--fill-0, #323232)"/>
<path id="Vector_7" d="M16.3474 11.855H16.633L17.0393 12.9942H17.0485L17.427 11.855H17.6242L18.0143 12.9942H18.0236L18.4298 11.855H18.7038L18.1119 13.5162H17.9144L17.5267 12.3652H17.5174L17.1366 13.5162H16.9394L16.3474 11.855Z" fill="var(--fill-0, #323232)"/>
<path id="Vector_8" d="M18.9067 11.855H19.1853V13.5162H18.9067V11.855Z" fill="var(--fill-0, #323232)"/>
<path id="Vector_9" d="M19.7846 12.2942C19.7846 12.4936 20.0632 12.5339 20.272 12.6573C20.4021 12.7331 20.5089 12.8567 20.5089 13.0654C20.5089 13.3646 20.2697 13.5518 20.005 13.5518C19.7404 13.5518 19.5501 13.4215 19.4757 13.3386L19.5802 13.113H19.5895C19.6776 13.2009 19.8124 13.2838 19.9865 13.2838C20.1003 13.2838 20.2234 13.2149 20.2234 13.0799C20.2234 12.8778 19.9448 12.838 19.7357 12.7144C19.6057 12.6386 19.4989 12.5149 19.4989 12.3062C19.4989 12.007 19.7404 11.8199 20.0097 11.8199C20.2628 11.8199 20.4345 11.9502 20.5089 12.0215L20.4044 12.247H20.3951C20.3045 12.1641 20.1909 12.088 20.0329 12.088C19.9077 12.0876 19.7846 12.1565 19.7846 12.2942Z" fill="var(--fill-0, #323232)"/>
<path id="Vector_10" d="M21.0155 12.2942C21.0155 12.4936 21.2941 12.5339 21.5029 12.6573C21.6329 12.7331 21.7398 12.8567 21.7398 13.0654C21.7398 13.3646 21.5006 13.5518 21.2359 13.5518C20.9712 13.5518 20.7809 13.4215 20.7066 13.3386L20.8111 13.113H20.8203C20.9084 13.2009 21.0433 13.2838 21.2174 13.2838C21.3312 13.2838 21.4542 13.2149 21.4542 13.0799C21.4542 12.8778 21.1756 12.838 20.9666 12.7144C20.8366 12.6386 20.7297 12.5149 20.7297 12.3062C20.7297 12.007 20.9712 11.8199 21.2405 11.8199C21.4936 11.8199 21.6654 11.9502 21.7398 12.0215L21.6352 12.247H21.626C21.5353 12.1641 21.4218 12.088 21.2637 12.088C21.1385 12.0876 21.0155 12.1565 21.0155 12.2942Z" fill="var(--fill-0, #323232)"/>
<path id="Vector_11" d="M22.5905 11.855H22.869V13.255H23.5423V13.5162H22.5905V11.855Z" fill="var(--fill-0, #323232)"/>
<path id="Vector_12" d="M23.7889 11.855H24.7407V12.1111H24.0675V12.5313H24.706V12.7803H24.0675V13.2599H24.7407V13.516H23.7889V11.855Z" fill="var(--fill-0, #323232)"/>
<path id="Vector_13" d="M24.8573 13.516L25.5862 11.8548H25.7836L26.5148 13.516H26.22L26.0321 13.0887H25.331L25.1428 13.516H24.8573ZM25.6745 12.2823L25.4399 12.8397H25.9206L25.6837 12.2823H25.6745Z" fill="var(--fill-0, #323232)"/>
<path id="Vector_14" d="M26.6944 11.855H27.2168C27.4907 11.855 27.6998 11.9454 27.846 12.0947C27.9923 12.242 28.0759 12.4482 28.0759 12.6737C28.0759 12.911 27.9876 13.1199 27.8414 13.2718C27.6951 13.4236 27.4907 13.5162 27.2168 13.5162H26.6944V11.855ZM26.973 12.116V13.2548H27.1866C27.405 13.2548 27.5489 13.1882 27.6486 13.0794C27.7366 12.9823 27.7902 12.8494 27.7902 12.6976C27.7902 12.5339 27.7392 12.396 27.6486 12.2942C27.5487 12.1826 27.4048 12.1162 27.1866 12.1162L26.973 12.116Z" fill="var(--fill-0, #323232)"/>
<path id="Vector_15" d="M28.3714 11.855H29.3232V12.1111H28.6499V12.5313H29.2884V12.7803H28.6499V13.2599H29.3232V13.516H28.3714V11.855Z" fill="var(--fill-0, #323232)"/>
<path id="Vector_16" d="M30.2894 12.8208L30.9184 13.5162H30.5541L29.9413 12.8208H29.932V13.5162H29.6534V11.855H30.1687C30.3522 11.855 30.4776 11.9071 30.5634 11.995C30.6493 12.0829 30.698 12.2037 30.698 12.3366C30.698 12.6 30.5216 12.7973 30.2896 12.8111V12.8208H30.2894ZM29.932 12.1111V12.5834H30.1339C30.2593 12.5834 30.3242 12.5502 30.3661 12.4981C30.3965 12.4602 30.4127 12.4148 30.4127 12.3605C30.4127 12.2961 30.3941 12.2418 30.364 12.199C30.3223 12.1442 30.2595 12.1111 30.1341 12.1111H29.932Z" fill="var(--fill-0, #323232)"/>
<path id="Vector_17" d="M31.5904 11.855H31.869V13.5162H31.5904V11.855Z" fill="var(--fill-0, #323232)"/>
<path id="Vector_18" d="M33.7382 13.516H33.5523L32.5518 12.3626H32.5425V13.516H32.2639V11.8548H32.4496L33.4503 13.0082H33.4596V11.8548H33.7382V13.516Z" fill="var(--fill-0, #323232)"/>
<path id="Vector_19" d="M35.4084 11.8194C35.8868 11.8194 36.2326 12.1845 36.2326 12.6734C36.2326 13.1863 35.8866 13.5514 35.4084 13.5514C34.9303 13.5514 34.5843 13.1863 34.5843 12.6974C34.5843 12.1847 34.9303 11.8194 35.4084 11.8194ZM35.4084 12.085C35.0927 12.085 34.8698 12.3344 34.8698 12.6857C34.8698 13.0366 35.0927 13.286 35.4084 13.286C35.7241 13.286 35.947 13.0366 35.947 12.6857C35.947 12.3344 35.7241 12.085 35.4084 12.085Z" fill="var(--fill-0, #323232)"/>
<path id="Vector_20" d="M38.0046 13.516H37.8187L36.8182 12.3626H36.8089V13.516H36.5303V11.8548H36.716L37.7167 13.0082H37.726V11.8548H38.0046V13.516Z" fill="var(--fill-0, #323232)"/>
<path id="Vector_21" d="M38.4001 11.855H38.6787V13.255H39.3518V13.5162H38.3999L38.4001 11.855Z" fill="var(--fill-0, #323232)"/>
<path id="Vector_22" d="M39.5985 11.855H39.8771V13.5162H39.5985V11.855Z" fill="var(--fill-0, #323232)"/>
<path id="Vector_23" d="M41.7463 13.516H41.5604L40.5599 12.3626H40.5506V13.516H40.272V11.8548H40.4577L41.4584 13.0082H41.4677V11.8548H41.7463V13.516Z" fill="var(--fill-0, #323232)"/>
<path id="Vector_24" d="M42.1418 11.855H43.0937V12.1111H42.4206V12.5313H43.0589V12.7803H42.4206V13.2599H43.0937V13.516H42.1418V11.855Z" fill="var(--fill-0, #323232)"/>
<path id="Vector_25" d="M44.8634 12.6332C44.9887 12.6905 45.0977 12.8442 45.0977 13.0295C45.0977 13.1624 45.0421 13.281 44.9584 13.3689C44.8703 13.4615 44.7496 13.5162 44.5683 13.5162H43.9718V11.855H44.5289C44.7007 11.855 44.8145 11.905 44.8958 11.9879C44.9771 12.0712 45.0281 12.1873 45.0281 12.3105C45.0281 12.446 44.9609 12.5647 44.8634 12.6239V12.6332ZM44.2506 12.1111V12.5313H44.4897C44.6151 12.5313 44.68 12.4955 44.7148 12.4387C44.7333 12.4079 44.7426 12.3721 44.7426 12.3344C44.7426 12.2752 44.7264 12.2276 44.6986 12.1897C44.6613 12.1397 44.6058 12.1111 44.4897 12.1111H44.2506ZM44.2506 12.7803V13.2599H44.5315C44.6589 13.2599 44.7241 13.2242 44.7658 13.1695C44.7936 13.1316 44.8124 13.0842 44.8124 13.0318C44.8124 12.9771 44.7984 12.93 44.7751 12.8897C44.7354 12.8208 44.6638 12.7803 44.5315 12.7803H44.2506Z" fill="var(--fill-0, #323232)"/>
<path id="Vector_26" d="M45.1636 13.516L45.8926 11.8548H46.09L46.8214 13.516H46.5266L46.3385 13.0887H45.6374L45.4494 13.516H45.1636ZM45.9808 12.2823L45.7465 12.8397H46.227L45.9901 12.2823H45.9808Z" fill="var(--fill-0, #323232)"/>
<path id="Vector_27" d="M48.4748 13.516H48.2892L47.2886 12.3626H47.2794V13.516H47.0008V11.8548H47.1864L48.1872 13.0082H48.1964V11.8548H48.4748V13.516Z" fill="var(--fill-0, #323232)"/>
<path id="Vector_28" d="M49.1582 12.676L49.8127 11.855H50.1353L49.4551 12.7094L50.1585 13.5162H49.8011L49.158 12.7734H49.1487V13.5162H48.8701V11.855H49.1487V12.676H49.1582Z" fill="var(--fill-0, #323232)"/>
<path id="Vector_29" d="M50.3383 11.855H50.6169V13.5162H50.3383V11.855Z" fill="var(--fill-0, #323232)"/>
<path id="Vector_30" d="M52.486 13.516H52.3002L51.2996 12.3626H51.2903V13.516H51.0118V11.8548H51.1974L52.1982 13.0082H52.2074V11.8548H52.486V13.516Z" fill="var(--fill-0, #323232)"/>
<path id="Vector_31" d="M54.0005 13.1602V12.6381H54.2677V13.2528C54.1632 13.3857 53.9472 13.5516 53.6269 13.5516C53.1186 13.5516 52.7819 13.1865 52.7819 12.6976C52.7819 12.1826 53.1372 11.8197 53.6176 11.8197C53.9358 11.8197 54.1354 11.9689 54.2445 12.0876L54.1122 12.2987H54.1029C53.9915 12.1871 53.8313 12.085 53.6269 12.085C53.2857 12.085 53.0674 12.3508 53.0674 12.6857C53.0674 13.0273 53.2718 13.2907 53.6269 13.2907C53.7845 13.2907 53.9194 13.2339 54.0005 13.1602Z" fill="var(--fill-0, #323232)"/>
</g>
</svg>
