<svg width="56" height="22" viewBox="0 0 56 22" fill="none" xmlns="http://www.w3.org/2000/svg">
<path d="M47.5425 20.1128C47.364 19.5965 47.3039 19.1814 47.3039 18.047C47.3039 16.9126 47.3632 16.4968 47.5425 15.9805C47.9721 14.7339 49.0228 14.0937 50.4908 14.0937C51.9225 14.0937 52.9502 14.7339 53.4028 15.8338C53.4389 15.9131 53.4261 15.9586 53.3435 15.9915L51.7562 16.6427C51.6724 16.6765 51.6247 16.6538 51.5883 16.5754C51.362 16.1266 51.0757 15.8567 50.526 15.8567C50.0134 15.8567 49.6909 16.0928 49.5469 16.5196C49.4637 16.7549 49.4276 16.9911 49.4276 18.0471C49.4276 19.1031 49.4637 19.3378 49.5469 19.5739C49.69 20.0007 50.0126 20.2368 50.526 20.2368C51.0757 20.2368 51.3612 19.9669 51.5883 19.5182C51.6244 19.4389 51.673 19.417 51.7562 19.4508L53.3435 20.102C53.4273 20.1358 53.4389 20.1804 53.4028 20.2597C52.9486 21.3597 51.9233 21.9999 50.4908 21.9999C49.0228 21.9999 47.9721 21.3594 47.5425 20.1128ZM43.9454 21.7525V14.3408C43.9454 14.2734 43.9931 14.228 44.0647 14.228H45.9276C45.9984 14.228 46.0461 14.2734 46.0461 14.3408V21.7517C46.0461 21.8191 45.9984 21.8648 45.9268 21.8648H44.064C43.9924 21.8648 43.9454 21.8206 43.9454 21.7525ZM37.1953 21.7525V14.3408C37.1953 14.2734 37.243 14.228 37.3146 14.228H39.1775C39.249 14.228 39.2968 14.2734 39.2968 14.3408V20.0453C39.2968 20.0899 39.3198 20.1126 39.3684 20.1126H42.8062C42.8778 20.1126 42.9255 20.1573 42.9255 20.2249V21.7517C42.9255 21.819 42.8778 21.8647 42.8062 21.8647H37.3146C37.243 21.8647 37.1953 21.8206 37.1953 21.7525ZM31.8315 20.3034C31.8315 20.3488 31.8545 20.3708 31.9031 20.3708H32.8577C33.5143 20.3708 33.8483 20.0679 33.8483 19.5062C33.8483 18.9782 33.5143 18.6526 32.8577 18.6526H31.9031C31.8547 18.6526 31.8315 18.6748 31.8315 18.7199V20.3034ZM31.9031 17.2939H32.7499C33.3834 17.2939 33.7175 17.035 33.7175 16.5078C33.7175 15.9688 33.3949 15.7216 32.7506 15.7216H31.9031C31.8547 15.7216 31.8315 15.7438 31.8315 15.789V17.2263C31.8315 17.2717 31.8545 17.2939 31.9031 17.2939ZM29.7301 21.7525V14.3408C29.7301 14.2734 29.7778 14.228 29.8494 14.228H33.1563C34.9706 14.228 35.8059 15.0478 35.8059 16.2607C35.8059 17.0468 35.4233 17.5976 34.8152 17.9004V17.9226C35.4125 18.1369 35.949 18.7762 35.949 19.6635C35.949 21.1573 34.8267 21.8649 33.1194 21.8649H29.8486C29.7778 21.8649 29.73 21.8206 29.7301 21.7525ZM25.0814 21.9997C23.1124 21.9997 21.8468 20.9437 21.8468 18.9124V14.3417C21.8468 14.2743 21.8945 14.2286 21.9662 14.2286H23.829C23.8998 14.2286 23.9476 14.274 23.9476 14.3417V19.0349C23.9476 19.799 24.4017 20.2375 25.0814 20.2375C25.7858 20.2375 26.2038 19.799 26.2038 19.0349V14.3417C26.2038 14.2743 26.2522 14.2286 26.3238 14.2286H28.1859C28.2575 14.2286 28.3052 14.274 28.3052 14.3417V18.9117C28.3052 20.9452 27.0159 21.9997 25.0814 21.9997ZM17.6762 17.643C18.3328 17.643 18.7031 17.2947 18.7031 16.7667C18.7031 16.2387 18.3328 15.9021 17.6762 15.9021H16.6024C16.5539 15.9021 16.5308 15.9243 16.5308 15.9695V17.5755C16.5308 17.6201 16.5538 17.6428 16.6024 17.6428L17.6762 17.643ZM16.4107 21.8655H14.5487C14.4778 21.8655 14.4301 21.82 14.4301 21.7527V14.341C14.4301 14.2737 14.4778 14.2282 14.5494 14.2282H17.7963C19.7777 14.2282 20.8046 15.2842 20.8046 16.7662C20.8046 18.2255 19.7654 19.3152 17.7955 19.3152H16.6024C16.5539 19.3152 16.5308 19.3374 16.5308 19.3826V21.7519C16.5308 21.8201 16.4831 21.865 16.4115 21.865L16.4107 21.8655ZM7.64459 21.7532V14.3409C7.64459 14.2735 7.69231 14.228 7.76391 14.228H13.0761C13.1477 14.228 13.1954 14.2735 13.1954 14.3409V15.7891C13.1954 15.8568 13.1477 15.9014 13.0761 15.9014H9.81765C9.76916 15.9014 9.74606 15.9236 9.74606 15.9687V17.1252C9.74606 17.1706 9.76904 17.1925 9.81765 17.1925H12.4911C12.5627 17.1925 12.6111 17.2379 12.6111 17.3053V18.7199C12.6111 18.7867 12.5627 18.8321 12.4911 18.8321H9.81765C9.76916 18.8321 9.74606 18.8543 9.74606 18.8995V20.1241C9.74606 20.1682 9.76904 20.1909 9.81765 20.1909H13.0761C13.1477 20.1909 13.1954 20.2364 13.1954 20.3032V21.7515C13.1954 21.8188 13.1477 21.8645 13.0761 21.8645H7.76391C7.69231 21.8645 7.6446 21.8205 7.6446 21.7523L7.64459 21.7532ZM3.29463 17.5191C3.8912 17.5191 4.24914 17.2037 4.24914 16.7102C4.24914 16.2159 3.8912 15.9013 3.29463 15.9013H2.1723C2.12459 15.9013 2.10071 15.9235 2.10071 15.9687V17.45C2.10071 17.4954 2.12369 17.5182 2.1723 17.5182H3.29463V17.5191ZM6.4222 21.8647H4.35691C4.24915 21.8647 4.21374 21.8309 4.17754 21.7516L2.94823 19.1469H2.17229C2.12458 19.1469 2.1007 19.1691 2.1007 19.2142V21.7515C2.1007 21.8189 2.05298 21.8646 1.98138 21.8646H0.119311C0.0477118 21.8646 0 21.8192 0 21.7515V14.3406C0 14.2733 0.0477118 14.2278 0.119311 14.2278H3.42624C5.28908 14.2278 6.35137 15.25 6.35137 16.6873C6.35137 17.6421 5.87334 18.4165 5.01351 18.8213L6.50609 21.7296C6.54074 21.797 6.50533 21.8647 6.4222 21.8647ZM30.9132 12.5868V5.1751C30.9132 5.10775 30.9609 5.06229 31.0325 5.06229H36.3447C36.4163 5.06229 36.464 5.10773 36.464 5.1751V6.62342C36.464 6.69077 36.4163 6.73568 36.3447 6.73568H33.0863C33.0377 6.73568 33.0147 6.75786 33.0147 6.80303V7.95947C33.0147 8.00491 33.0377 8.02682 33.0863 8.02682H35.7597C35.8313 8.02682 35.8798 8.07225 35.8798 8.1399V9.5552C35.8798 9.622 35.8313 9.66744 35.7597 9.66744H33.0863C33.0377 9.66744 33.0147 9.68962 33.0147 9.73479V10.9594C33.0147 11.0035 33.0377 11.0254 33.0863 11.0254H36.3447C36.4163 11.0254 36.464 11.0717 36.464 11.1385V12.5868C36.464 12.6541 36.4163 12.6998 36.3447 12.6998H31.0325C30.9609 12.6992 30.9132 12.6544 30.9132 12.5868ZM25.3454 10.8803C25.3454 10.925 25.3693 10.9471 25.4171 10.9471H26.0498C26.7903 10.9471 27.196 10.7564 27.3869 10.2175C27.4585 9.99243 27.5062 9.73494 27.5062 8.88137C27.5062 8.02778 27.4585 7.76894 27.3869 7.54453C27.196 7.00481 26.7903 6.81487 26.0498 6.81487H25.4171C25.3694 6.81487 25.3454 6.83705 25.3454 6.88168V10.8803ZM23.2447 12.5868V5.1751C23.2447 5.10775 23.2932 5.06229 23.3648 5.06229H26.5039C27.9357 5.06229 28.9865 5.62401 29.3929 6.80319C29.5599 7.29745 29.6315 7.72425 29.6315 8.88067C29.6315 10.0254 29.5599 10.4646 29.3929 10.9574C28.9865 12.1366 27.9357 12.6983 26.5039 12.6983H23.3648C23.2932 12.6983 23.2447 12.6541 23.2447 12.5868ZM17.6431 9.76788H19.2181L18.466 7.38681H18.4298L17.6431 9.76788ZM14.5271 12.5868L17.3321 5.17585C17.3551 5.1085 17.4037 5.06276 17.4877 5.06276H19.4336C19.5175 5.06276 19.5652 5.1082 19.5891 5.17585L22.3341 12.5868C22.358 12.6541 22.3225 12.6996 22.251 12.6996H20.2804C20.1973 12.6996 20.1495 12.6541 20.1257 12.5868L19.7439 11.4076H17.1043L16.7225 12.5868C16.6987 12.6541 16.6509 12.6996 16.567 12.6996H14.6095C14.5379 12.6989 14.5017 12.6541 14.5263 12.5868H14.5271ZM10.7144 8.35332C11.311 8.35332 11.669 8.03799 11.669 7.54446C11.669 7.0502 11.311 6.73562 10.7144 6.73562H9.59134C9.54285 6.73562 9.51974 6.7578 9.51974 6.80297V8.28428C9.51974 8.32971 9.54273 8.35245 9.59134 8.35245H10.7137L10.7144 8.35332ZM13.842 12.699H11.7767C11.669 12.699 11.6335 12.6651 11.5981 12.5859L10.3681 9.98113H9.59289C9.5444 9.98113 9.52129 10.0033 9.52129 10.0485V12.5857C9.52129 12.6531 9.4728 12.6988 9.4012 12.6988H7.53835C7.46675 12.6988 7.41904 12.6534 7.41904 12.5857V5.17483C7.41904 5.10747 7.46675 5.06203 7.53835 5.06203H10.8453C12.7081 5.06203 13.7696 6.08427 13.7696 7.5223C13.7696 8.47707 13.2924 9.25145 12.4325 9.65624L13.9251 12.5646C13.9605 12.6306 13.9251 12.6987 13.8405 12.6987L13.842 12.699ZM4.17986 12.699H2.31702C2.2462 12.699 2.19771 12.6535 2.19771 12.5859V6.88141C2.19771 6.83678 2.17472 6.81459 2.12611 6.81459H0.131643C0.0608293 6.81459 0.0130852 6.76917 0.0130852 6.70179V5.175C0.0130852 5.10766 0.0607976 5.0622 0.132397 5.0622H6.36368C6.43528 5.0622 6.483 5.10764 6.483 5.175V6.70179C6.483 6.76915 6.43528 6.81459 6.36368 6.81459H4.36998C4.32226 6.81459 4.29838 6.83678 4.29838 6.88141V12.5866C4.29838 12.654 4.25067 12.6989 4.17907 12.6989L4.17986 12.699ZM55.6975 4.46892C55.7833 4.44993 55.8598 4.40389 55.9147 4.33828C55.9696 4.27266 55.9997 4.19132 56 4.10741H55.9986V0.37187C55.998 0.315371 55.9841 0.259723 55.9578 0.209064C55.9316 0.158405 55.8937 0.114043 55.8469 0.0792913C55.8001 0.0445397 55.7457 0.0202929 55.6878 0.00835422C55.6298 -0.00358448 55.5697 -0.00290288 55.5121 0.0103438L49.8581 1.28558C49.6843 1.325 49.5025 1.31828 49.3324 1.26616L46.7813 0.47784C46.6108 0.42533 46.4284 0.41861 46.2541 0.458416L40.4592 1.77398C40.3735 1.79282 40.297 1.83872 40.2421 1.90421C40.1871 1.9697 40.1571 2.05094 40.1567 2.13475V5.86956C40.1574 5.92617 40.1714 5.98191 40.1978 6.03263C40.2242 6.08335 40.2623 6.12775 40.3092 6.1625C40.3561 6.19725 40.4106 6.22147 40.4687 6.23335C40.5268 6.24522 40.587 6.24446 40.6448 6.2311L46.2541 4.95805C46.428 4.91839 46.6112 4.92505 46.7813 4.97747L49.3324 5.76652C49.5017 5.8178 49.6842 5.82526 49.8581 5.78594L55.6968 4.46963L55.6975 4.46892ZM55.6975 10.0421C55.7833 10.0233 55.86 9.97726 55.9149 9.91161C55.9698 9.84597 55.9998 9.76456 56 9.68061H55.9986V5.94583C55.998 5.88933 55.9841 5.83368 55.9578 5.78302C55.9316 5.73236 55.8937 5.68801 55.8469 5.65325C55.8001 5.6185 55.7457 5.59426 55.6878 5.58232C55.6298 5.57038 55.5697 5.57105 55.5121 5.5843L49.8581 6.85807C49.6843 6.89749 49.5025 6.89077 49.3324 6.83864L46.7813 6.04987C46.6108 5.99736 46.4284 5.99064 46.2541 6.03045L40.46 7.34601C40.3741 7.36489 40.2975 7.41088 40.2426 7.47652C40.1877 7.54217 40.1577 7.62359 40.1575 7.70754V11.4416C40.1581 11.4982 40.1722 11.5539 40.1986 11.6047C40.225 11.6554 40.263 11.6998 40.3099 11.7345C40.3569 11.7693 40.4114 11.7935 40.4695 11.8054C40.5276 11.8172 40.5878 11.8165 40.6455 11.8031L46.2548 10.5301C46.4288 10.4904 46.612 10.4971 46.7821 10.5495L49.3331 11.3386C49.5025 11.3907 49.6849 11.3973 49.8589 11.358L55.6975 10.0421Z" fill="#030303"/>
</svg>
