<svg preserveAspectRatio="none" width="100%" height="100%" overflow="visible" style="display: block;" viewBox="0 0 56 22" fill="none" xmlns="http://www.w3.org/2000/svg">
<g id="layer1">
<path id="path2" d="M47.5425 20.1129C47.364 19.5966 47.3039 19.1816 47.3039 18.0471C47.3039 16.9127 47.3632 16.4969 47.5425 15.9806C47.9721 14.734 49.0228 14.0938 50.4908 14.0938C51.9225 14.0938 52.9502 14.734 53.4028 15.8339C53.4389 15.9132 53.4261 15.9587 53.3435 15.9917L51.7562 16.6428C51.6724 16.6766 51.6247 16.6539 51.5883 16.5755C51.362 16.1267 51.0757 15.8568 50.526 15.8568C50.0134 15.8568 49.6909 16.0929 49.5469 16.5197C49.4637 16.7551 49.4276 16.9913 49.4276 18.0472C49.4276 19.1032 49.4637 19.3379 49.5469 19.574C49.69 20.0008 50.0126 20.2369 50.526 20.2369C51.0757 20.2369 51.3612 19.967 51.5883 19.5183C51.6244 19.439 51.673 19.4171 51.7562 19.4509L53.3435 20.1021C53.4273 20.1359 53.4389 20.1806 53.4028 20.2598C52.9486 21.3598 51.9233 22 50.4908 22C49.0228 22 47.9721 21.3595 47.5425 20.1129ZM43.9454 21.7526V14.3409C43.9454 14.2736 43.9931 14.2281 44.0647 14.2281H45.9276C45.9984 14.2281 46.0461 14.2736 46.0461 14.3409V21.7518C46.0461 21.8192 45.9984 21.8649 45.9268 21.8649H44.064C43.9924 21.8649 43.9454 21.8207 43.9454 21.7526ZM37.1953 21.7526V14.3409C37.1953 14.2736 37.243 14.2281 37.3146 14.2281H39.1775C39.249 14.2281 39.2968 14.2736 39.2968 14.3409V20.0454C39.2968 20.09 39.3198 20.1128 39.3684 20.1128H42.8062C42.8778 20.1128 42.9255 20.1574 42.9255 20.225V21.7518C42.9255 21.8191 42.8778 21.8649 42.8062 21.8649H37.3146C37.243 21.8649 37.1953 21.8207 37.1953 21.7526ZM31.8315 20.3035C31.8315 20.349 31.8545 20.3709 31.9031 20.3709H32.8577C33.5143 20.3709 33.8483 20.068 33.8483 19.5063C33.8483 18.9783 33.5143 18.6527 32.8577 18.6527H31.9031C31.8547 18.6527 31.8315 18.6749 31.8315 18.7201V20.3035ZM31.9031 17.294H32.7499C33.3834 17.294 33.7175 17.0351 33.7175 16.5079C33.7175 15.9689 33.3949 15.7217 32.7506 15.7217H31.9031C31.8547 15.7217 31.8315 15.7439 31.8315 15.7891V17.2264C31.8315 17.2719 31.8545 17.294 31.9031 17.294ZM29.7301 21.7526V14.3409C29.7301 14.2736 29.7778 14.2281 29.8494 14.2281H33.1563C34.9706 14.2281 35.8059 15.048 35.8059 16.2609C35.8059 17.047 35.4233 17.5977 34.8152 17.9006V17.9227C35.4125 18.137 35.949 18.7763 35.949 19.6636C35.949 21.1574 34.8267 21.8651 33.1194 21.8651H29.8486C29.7778 21.8651 29.73 21.8207 29.7301 21.7526ZM25.0814 21.9998C23.1124 21.9998 21.8468 20.9438 21.8468 18.9125V14.3418C21.8468 14.2744 21.8945 14.2287 21.9662 14.2287H23.829C23.8998 14.2287 23.9476 14.2741 23.9476 14.3418V19.035C23.9476 19.7991 24.4017 20.2377 25.0814 20.2377C25.7858 20.2377 26.2038 19.7991 26.2038 19.035V14.3418C26.2038 14.2744 26.2522 14.2287 26.3238 14.2287H28.1859C28.2575 14.2287 28.3052 14.2741 28.3052 14.3418V18.9118C28.3052 20.9453 27.0158 21.9998 25.0814 21.9998ZM17.6762 17.6432C18.3328 17.6432 18.7031 17.2948 18.7031 16.7668C18.7031 16.2389 18.3328 15.9023 17.6762 15.9023H16.6024C16.5539 15.9023 16.5308 15.9244 16.5308 15.9696V17.5756C16.5308 17.6202 16.5538 17.6429 16.6024 17.6429L17.6762 17.6432ZM16.4107 21.8656H14.5487C14.4778 21.8656 14.4301 21.8202 14.4301 21.7528V14.3411C14.4301 14.2738 14.4778 14.2283 14.5494 14.2283H17.7963C19.7777 14.2283 20.8046 15.2843 20.8046 16.7663C20.8046 18.2256 19.7654 19.3153 17.7955 19.3153H16.6024C16.5539 19.3153 16.5308 19.3375 16.5308 19.3827V21.7521C16.5308 21.8202 16.4831 21.8651 16.4115 21.8651L16.4107 21.8656ZM7.64459 21.7534V14.341C7.64459 14.2736 7.69231 14.2282 7.76391 14.2282H13.0761C13.1477 14.2282 13.1954 14.2736 13.1954 14.341V15.7893C13.1954 15.8569 13.1477 15.9015 13.0761 15.9015H9.81765C9.76916 15.9015 9.74606 15.9237 9.74606 15.9689V17.1253C9.74606 17.1707 9.76904 17.1926 9.81765 17.1926H12.4911C12.5627 17.1926 12.6111 17.2381 12.6111 17.3054V18.72C12.6111 18.7868 12.5627 18.8323 12.4911 18.8323H9.81765C9.76916 18.8323 9.74606 18.8544 9.74606 18.8996V20.1242C9.74606 20.1683 9.76904 20.191 9.81765 20.191H13.0761C13.1477 20.191 13.1954 20.2365 13.1954 20.3033V21.7516C13.1954 21.8189 13.1477 21.8647 13.0761 21.8647H7.76391C7.69231 21.8647 7.6446 21.8206 7.6446 21.7524L7.64459 21.7534ZM3.29463 17.5192C3.8912 17.5192 4.24914 17.2038 4.24914 16.7103C4.24914 16.2161 3.8912 15.9015 3.29463 15.9015H2.1723C2.12459 15.9015 2.10071 15.9236 2.10071 15.9688V17.4501C2.10071 17.4956 2.12369 17.5183 2.1723 17.5183H3.29463V17.5192ZM6.4222 21.8648H4.35691C4.24915 21.8648 4.21374 21.831 4.17754 21.7517L2.94823 19.147H2.17229C2.12458 19.147 2.1007 19.1692 2.1007 19.2144V21.7516C2.1007 21.819 2.05298 21.8647 1.98138 21.8647H0.119311C0.0477118 21.8647 0 21.8193 0 21.7516V14.3407C0 14.2734 0.0477118 14.2279 0.119311 14.2279H3.42624C5.28908 14.2279 6.35137 15.2501 6.35137 16.6875C6.35137 17.6422 5.87334 18.4166 5.01351 18.8214L6.50609 21.7297C6.54074 21.7971 6.50533 21.8648 6.4222 21.8648ZM30.9132 12.5869V5.17523C30.9132 5.10787 30.9609 5.06241 31.0325 5.06241H36.3447C36.4163 5.06241 36.464 5.10785 36.464 5.17523V6.62354C36.464 6.6909 36.4163 6.7358 36.3447 6.7358H33.0863C33.0377 6.7358 33.0147 6.75798 33.0147 6.80315V7.9596C33.0147 8.00503 33.0377 8.02694 33.0863 8.02694H35.7597C35.8313 8.02694 35.8798 8.07237 35.8798 8.14002V9.55532C35.8798 9.62212 35.8313 9.66756 35.7597 9.66756H33.0863C33.0377 9.66756 33.0147 9.68975 33.0147 9.73491V10.9596C33.0147 11.0037 33.0377 11.0255 33.0863 11.0255H36.3447C36.4163 11.0255 36.464 11.0718 36.464 11.1386V12.5869C36.464 12.6542 36.4163 12.7 36.3447 12.7H31.0325C30.9609 12.6993 30.9132 12.6545 30.9132 12.5869ZM25.3454 10.8804C25.3454 10.9251 25.3693 10.9473 25.4171 10.9473H26.0498C26.7903 10.9473 27.196 10.7566 27.3869 10.2176C27.4585 9.99255 27.5062 9.73506 27.5062 8.88149C27.5062 8.0279 27.4585 7.76906 27.3869 7.54465C27.196 7.00493 26.7903 6.81499 26.0498 6.81499H25.4171C25.3694 6.81499 25.3454 6.83717 25.3454 6.8818V10.8804ZM23.2447 12.5869V5.17523C23.2447 5.10787 23.2932 5.06241 23.3648 5.06241H26.5039C27.9357 5.06241 28.9865 5.62413 29.3929 6.80331C29.5599 7.29757 29.6315 7.72437 29.6315 8.88079C29.6315 10.0255 29.5599 10.4648 29.3929 10.9575C28.9865 12.1367 27.9357 12.6984 26.5039 12.6984H23.3648C23.2932 12.6984 23.2447 12.6542 23.2447 12.5869ZM17.6431 9.76801H19.2181L18.466 7.38693H18.4298L17.6431 9.76801ZM14.5271 12.5869L17.3321 5.17597C17.3551 5.10862 17.4037 5.06289 17.4877 5.06289H19.4336C19.5175 5.06289 19.5652 5.10833 19.5891 5.17597L22.3341 12.5869C22.358 12.6542 22.3225 12.6997 22.251 12.6997H20.2804C20.1973 12.6997 20.1495 12.6543 20.1257 12.5869L19.7439 11.4077H17.1043L16.7225 12.5869C16.6987 12.6542 16.6509 12.6997 16.567 12.6997H14.6095C14.5379 12.699 14.5017 12.6543 14.5263 12.5869H14.5271ZM10.7144 8.35344C11.311 8.35344 11.669 8.03812 11.669 7.54458C11.669 7.05032 11.311 6.73574 10.7144 6.73574H9.59134C9.54285 6.73574 9.51974 6.75792 9.51974 6.8031V8.2844C9.51974 8.32983 9.54273 8.35258 9.59134 8.35258H10.7137L10.7144 8.35344ZM13.842 12.6991H11.7767C11.669 12.6991 11.6335 12.6653 11.5981 12.586L10.3681 9.98125H9.59289C9.5444 9.98125 9.52129 10.0034 9.52129 10.0486V12.5859C9.52129 12.6532 9.4728 12.6989 9.4012 12.6989H7.53835C7.46675 12.6989 7.41904 12.6535 7.41904 12.5859V5.17495C7.41904 5.1076 7.46675 5.06215 7.53835 5.06215H10.8453C12.7081 5.06215 13.7696 6.08439 13.7696 7.52243C13.7696 8.47719 13.2924 9.25157 12.4325 9.65636L13.9251 12.5647C13.9605 12.6307 13.9251 12.6989 13.8405 12.6989L13.842 12.6991ZM4.17986 12.6991H2.31702C2.2462 12.6991 2.19771 12.6536 2.19771 12.586V6.88153C2.19771 6.8369 2.17472 6.81472 2.12611 6.81472H0.131643C0.0608293 6.81472 0.0130852 6.76929 0.0130852 6.70192V5.17512C0.0130852 5.10778 0.0607976 5.06232 0.132396 5.06232H6.36368C6.43528 5.06232 6.483 5.10776 6.483 5.17512V6.70192C6.483 6.76927 6.43528 6.81472 6.36368 6.81472H4.36998C4.32226 6.81472 4.29838 6.8369 4.29838 6.88153V12.5867C4.29838 12.6541 4.25067 12.699 4.17907 12.699L4.17986 12.6991ZM55.6975 4.46904C55.7833 4.45005 55.8598 4.40401 55.9147 4.3384C55.9696 4.27278 55.9997 4.19144 56 4.10753H55.9986V0.371992C55.998 0.315493 55.9841 0.259845 55.9578 0.209186C55.9316 0.158527 55.8937 0.114165 55.8469 0.0794134C55.8001 0.0446618 55.7457 0.020415 55.6878 0.00847629C55.6298 -0.00346241 55.5697 -0.00278081 55.5121 0.0104659L49.8581 1.2857C49.6843 1.32512 49.5025 1.3184 49.3324 1.26628L46.7814 0.477962C46.6108 0.425452 46.4284 0.418732 46.2541 0.458538L40.4592 1.7741C40.3735 1.79295 40.297 1.83884 40.2421 1.90433C40.1871 1.96982 40.1571 2.05106 40.1567 2.13488V5.86968C40.1574 5.92629 40.1714 5.98204 40.1978 6.03276C40.2242 6.08348 40.2623 6.12787 40.3092 6.16262C40.3561 6.19737 40.4106 6.22159 40.4687 6.23347C40.5268 6.24534 40.587 6.24458 40.6448 6.23122L46.2541 4.95817C46.428 4.91851 46.6112 4.92517 46.7814 4.97759L49.3324 5.76664C49.5017 5.81792 49.6842 5.82538 49.8581 5.78606L55.6968 4.46975L55.6975 4.46904ZM55.6975 10.0423C55.7833 10.0234 55.86 9.97738 55.9149 9.91174C55.9698 9.84609 55.9998 9.76468 56 9.68073H55.9986V5.94595C55.998 5.88946 55.9841 5.8338 55.9578 5.78314C55.9316 5.73248 55.8937 5.68813 55.8469 5.65338C55.8001 5.61862 55.7457 5.59438 55.6878 5.58244C55.6298 5.5705 55.5697 5.57117 55.5121 5.58442L49.8581 6.85819C49.6843 6.89761 49.5025 6.89089 49.3324 6.83877L46.7814 6.05C46.6108 5.99749 46.4284 5.99077 46.2541 6.03057L40.46 7.34613C40.3741 7.36501 40.2975 7.411 40.2426 7.47665C40.1877 7.54229 40.1577 7.62371 40.1575 7.70766V11.4417C40.1581 11.4983 40.1722 11.5541 40.1986 11.6048C40.225 11.6555 40.263 11.6999 40.3099 11.7346C40.3569 11.7694 40.4114 11.7936 40.4695 11.8055C40.5276 11.8174 40.5878 11.8166 40.6455 11.8032L46.2548 10.5302C46.4288 10.4906 46.612 10.4972 46.7821 10.5496L49.3331 11.3387C49.5025 11.3908 49.6849 11.3974 49.8589 11.3581L55.6975 10.0423Z" fill="var(--fill-0, white)"/>
</g>
</svg>
