<svg preserveAspectRatio="none" width="100%" height="100%" overflow="visible" style="display: block;" viewBox="0 0 52.0023 20.0035" fill="none" xmlns="http://www.w3.org/2000/svg">
<g id="RGB">
<path id="Vector" fill-rule="evenodd" clip-rule="evenodd" d="M29.4241 14.6915L27.9964 12.1659L26.6012 14.6915H23.1597L26.3471 9.91402L23.2863 5.52378H26.7754L28.0127 7.72767L29.2813 5.52378H32.7379L29.6771 9.91402L32.8807 14.6915H29.4241Z" fill="var(--fill-0, black)"/>
<path id="Vector_2" fill-rule="evenodd" clip-rule="evenodd" d="M48.194 14.9488C47.0333 14.9488 46.179 14.4809 45.5139 13.4854V14.7078H42.5646V2.71393H45.5V6.68187C46.1024 5.74604 47.0379 5.25121 48.2277 5.25121C50.368 5.25121 52.0023 7.18021 52.0023 10.1562C52.0023 13.0514 50.4168 14.9523 48.1963 14.9523M47.2411 7.60367C46.1314 7.60367 45.4652 8.47166 45.4652 10.0158C45.4652 11.6886 46.0676 12.5566 47.1772 12.5566C48.2869 12.5566 48.938 11.6722 48.938 10.0158C48.9392 8.49974 48.2729 7.60367 47.2411 7.60367Z" fill="var(--fill-0, black)"/>
<path id="Vector_3" fill-rule="evenodd" clip-rule="evenodd" d="M40.1712 7.78265V5.52378H38.6518V2.71627H35.6989V5.52378H34.4929V7.78265H35.6989V11.8149C35.6989 12.5063 35.2892 15.832 40.1387 14.7102V12.7941C40.0121 12.8061 39.885 12.8112 39.7579 12.8093C38.8224 12.8093 38.6483 12.4069 38.6483 11.3143V7.78265H40.1712Z" fill="var(--fill-0, black)"/>
<path id="Vector_4" fill-rule="evenodd" clip-rule="evenodd" d="M0.50145 20.0035H19.2191C19.285 20.0037 19.3503 19.9907 19.4112 19.9654C19.4721 19.94 19.5274 19.9028 19.574 19.8558C19.6206 19.8089 19.6576 19.7531 19.6827 19.6917C19.7078 19.6303 19.7207 19.5646 19.7206 19.4982V0.505353C19.7207 0.438946 19.7078 0.373163 19.6827 0.311781C19.6576 0.250399 19.6206 0.194628 19.574 0.147671C19.5274 0.100715 19.4721 0.0634965 19.4112 0.0381548C19.3503 0.0128131 19.285 -0.000152896 19.2191 1.36035e-06H0.50145C0.435559 -0.000152896 0.370286 0.0128131 0.309381 0.0381548C0.248476 0.0634965 0.193138 0.100715 0.146545 0.147671C0.0999528 0.194628 0.0630237 0.250399 0.0378788 0.311781C0.0127339 0.373163 -0.000131499 0.438946 2.15598e-05 0.505353V19.4946C-0.000592884 19.5613 0.0119319 19.6275 0.0368701 19.6893C0.0618084 19.7511 0.0986645 19.8073 0.145303 19.8546C0.191942 19.9019 0.247436 19.9395 0.30857 19.965C0.369705 19.9906 0.435264 20.0037 0.50145 20.0035ZM13.4016 14.1826C13.3192 14.1042 13.2356 14.0259 13.1521 13.9486C12.2378 13.1113 11.2611 12.346 10.2306 11.6594C9.27696 12.2442 8.29151 12.7746 7.27886 13.2479L1.12708 12.0056C2.33031 11.6935 3.5121 11.3028 4.66493 10.8358C5.43874 10.5239 6.1905 10.1768 6.9202 9.7947C6.45591 9.57556 5.98776 9.36929 5.51574 9.17588C4.36317 8.7093 3.18179 8.31855 1.97904 8.00608L8.12502 6.75323C8.82145 7.07844 9.49815 7.42665 10.1551 7.79786C10.9045 7.25926 11.6218 6.67687 12.3036 6.05369C12.3883 5.97766 12.4707 5.90045 12.5543 5.81974L17.7439 4.82658C16.4053 6.64512 14.8318 8.2754 13.065 9.67421C15.1748 11.2118 17.0384 13.066 18.5912 15.1723L13.4016 14.1791V14.1826Z" fill="var(--fill-0, #FF0000)"/>
</g>
</svg>
