<svg width="102" height="40" viewBox="0 0 102 40" fill="none" xmlns="http://www.w3.org/2000/svg">
<g clip-path="url(#clip0_93_1047)">
<path d="M86.5953 36.5688C86.2701 35.6301 86.1607 34.8755 86.1607 32.8129C86.1607 30.7503 86.2686 29.9943 86.5953 29.0556C87.3777 26.789 89.2916 25.625 91.9653 25.625C94.5732 25.625 96.445 26.789 97.2694 28.7889C97.3351 28.9331 97.3118 29.0157 97.1613 29.0757L94.2702 30.2596C94.1176 30.3211 94.0307 30.2798 93.9644 30.1372C93.5522 29.3212 93.0307 28.8305 92.0296 28.8305C91.0958 28.8305 90.5083 29.2598 90.2461 30.0358C90.0946 30.4637 90.0289 30.8931 90.0289 32.8131C90.0289 34.733 90.0946 35.1597 90.2461 35.5891C90.5069 36.365 91.0944 36.7944 92.0296 36.7944C93.0307 36.7944 93.5508 36.3035 93.9644 35.4877C94.0301 35.3436 94.1187 35.3038 94.2702 35.3653L97.1613 36.5492C97.3139 36.6107 97.3352 36.6919 97.2694 36.836C96.4421 38.836 94.5746 39.9999 91.9653 39.9999C89.2916 39.9999 87.3777 38.8354 86.5953 36.5688ZM80.0434 39.5501V26.0743C80.0434 25.9519 80.1303 25.8692 80.2607 25.8692H83.6538C83.7828 25.8692 83.8697 25.9518 83.8697 26.0743V39.5487C83.8697 39.6712 83.7828 39.7543 83.6524 39.7543H80.2593C80.1289 39.7543 80.0434 39.674 80.0434 39.5501ZM67.7486 39.5501V26.0743C67.7486 25.9519 67.8354 25.8692 67.9659 25.8692H71.3589C71.4893 25.8692 71.5762 25.9518 71.5762 26.0743V36.4461C71.5762 36.5273 71.6181 36.5686 71.7067 36.5686H77.9683C78.0988 36.5686 78.1857 36.6497 78.1857 36.7727V39.5486C78.1857 39.6711 78.0988 39.7542 77.9683 39.7542H67.9659C67.8355 39.7542 67.7486 39.674 67.7486 39.5501ZM57.9789 36.9155C57.9789 36.9981 58.0208 37.0379 58.1093 37.0379H59.8479C61.0438 37.0379 61.6523 36.4873 61.6523 35.4659C61.6523 34.506 61.0438 33.914 59.8479 33.914H58.1093C58.021 33.914 57.9789 33.9543 57.9789 34.0364V36.9155ZM58.1093 31.4436H59.6516C60.8055 31.4436 61.414 30.9729 61.414 30.0143C61.414 29.0343 60.8265 28.5849 59.653 28.5849H58.1093C58.021 28.5849 57.9789 28.6253 57.9789 28.7074V31.3207C57.9789 31.4033 58.0208 31.4436 58.1093 31.4436ZM54.1512 39.5501V26.0743C54.1512 25.9519 54.238 25.8692 54.3685 25.8692H60.3918C63.6965 25.8692 65.2178 27.3599 65.2178 29.5651C65.2178 30.9944 64.521 31.9958 63.4133 32.5464V32.5867C64.5013 32.9763 65.4786 34.1387 65.4786 35.752C65.4786 38.468 63.4344 39.7546 60.3245 39.7546H54.3671C54.2381 39.7546 54.1511 39.674 54.1512 39.5501ZM45.684 39.9996C42.0975 39.9996 39.7925 38.0796 39.7925 34.3863V26.0759C39.7925 25.9534 39.8793 25.8703 40.0098 25.8703H43.4028C43.5318 25.8703 43.6188 25.9529 43.6188 26.0759V34.609C43.6188 35.9984 44.446 36.7957 45.684 36.7957C46.9669 36.7957 47.7283 35.9984 47.7283 34.609V26.0759C47.7283 25.9534 47.8166 25.8703 47.947 25.8703H51.3386C51.469 25.8703 51.5559 25.9529 51.5559 26.0759V34.385C51.5559 38.0823 49.2074 39.9996 45.684 39.9996ZM32.196 32.0784C33.392 32.0784 34.0664 31.4451 34.0664 30.4851C34.0664 29.5251 33.392 28.9131 32.196 28.9131H30.2401C30.1518 28.9131 30.1097 28.9535 30.1097 29.0356V31.9556C30.1097 32.0367 30.1516 32.078 30.2401 32.078L32.196 32.0784ZM29.891 39.7556H26.4993C26.3704 39.7556 26.2834 39.673 26.2834 39.5505V26.0747C26.2834 25.9523 26.3703 25.8696 26.5007 25.8696H32.4147C36.0237 25.8696 37.894 27.7896 37.894 30.4842C37.894 33.1375 36.0012 35.1188 32.4133 35.1188H30.2401C30.1518 35.1188 30.1097 35.1591 30.1097 35.2412V39.5491C30.1097 39.6731 30.0228 39.7547 29.8924 39.7547L29.891 39.7556ZM13.9241 39.5515V26.0744C13.9241 25.952 14.011 25.8693 14.1414 25.8693H23.8172C23.9476 25.8693 24.0345 25.9519 24.0345 26.0744V28.7077C24.0345 28.8307 23.9476 28.9118 23.8172 28.9118H17.8822C17.7938 28.9118 17.7517 28.9521 17.7517 29.0342V31.1368C17.7517 31.2194 17.7936 31.2593 17.8822 31.2593H22.7516C22.882 31.2593 22.9703 31.3419 22.9703 31.4644V34.0363C22.9703 34.1578 22.882 34.2404 22.7516 34.2404H17.8822C17.7938 34.2404 17.7517 34.2807 17.7517 34.3629V36.5895C17.7517 36.6696 17.7936 36.7109 17.8822 36.7109H23.8172C23.9476 36.7109 24.0345 36.7935 24.0345 36.915V39.5483C24.0345 39.6707 23.9476 39.7539 23.8172 39.7539H14.1414C14.011 39.7539 13.9241 39.6737 13.9241 39.5498L13.9241 39.5515ZM6.00093 31.853C7.08754 31.853 7.7395 31.2796 7.7395 30.3823C7.7395 29.4837 7.08754 28.9117 6.00093 28.9117H3.9567C3.86979 28.9117 3.82628 28.952 3.82628 29.0341V31.7274C3.82628 31.81 3.86815 31.8514 3.9567 31.8514H6.00093V31.853ZM11.6976 39.7542H7.9358C7.73952 39.7542 7.67502 39.6927 7.6091 39.5486L5.36998 34.8127H3.95668C3.86977 34.8127 3.82627 34.853 3.82627 34.9351V39.5484C3.82627 39.6708 3.73936 39.754 3.60895 39.754H0.217317C0.0869036 39.754 0 39.6714 0 39.5484V26.074C0 25.9515 0.0869036 25.8689 0.217317 25.8689H6.24065C9.63369 25.8689 11.5686 27.7275 11.5686 30.3408C11.5686 32.0767 10.6979 33.4847 9.13175 34.2207L11.8504 39.5086C11.9135 39.631 11.849 39.7542 11.6976 39.7542ZM56.3062 22.8852V9.40944C56.3062 9.28698 56.3931 9.20433 56.5235 9.20433H66.1993C66.3297 9.20433 66.4166 9.28694 66.4166 9.40944V12.0427C66.4166 12.1652 66.3297 12.2468 66.1993 12.2468H60.2643C60.1758 12.2468 60.1338 12.2872 60.1338 12.3693V14.4719C60.1338 14.5545 60.1757 14.5944 60.2643 14.5944H65.1337C65.2641 14.5944 65.3524 14.677 65.3524 14.8V17.3732C65.3524 17.4947 65.2642 17.5773 65.1337 17.5773H60.2643C60.1758 17.5773 60.1338 17.6177 60.1338 17.6998V19.9264C60.1338 20.0066 60.1757 20.0463 60.2643 20.0463H66.1993C66.3297 20.0463 66.4166 20.1305 66.4166 20.2519V22.8852C66.4166 23.0076 66.3297 23.0908 66.1993 23.0908H56.5235C56.3931 23.0896 56.3062 23.0082 56.3062 22.8852ZM46.1649 19.7826C46.1649 19.8637 46.2084 19.904 46.2954 19.904H47.4479C48.7966 19.904 49.5355 19.5573 49.8833 18.5774C50.0137 18.1682 50.1006 17.7001 50.1006 16.1481C50.1006 14.5961 50.0137 14.1255 49.8833 13.7175C49.5355 12.7362 48.7966 12.3908 47.4479 12.3908H46.2954C46.2085 12.3908 46.1649 12.4312 46.1649 12.5123V19.7826ZM42.3387 22.8852V9.40944C42.3387 9.28698 42.4269 9.20433 42.5574 9.20433H48.275C50.8829 9.20433 52.7968 10.2256 53.5371 12.3696C53.8413 13.2682 53.9717 14.0443 53.9717 16.1468C53.9717 18.2282 53.8413 19.0268 53.5371 19.9228C52.7968 22.0667 50.8829 23.088 48.275 23.088H42.5574C42.4269 23.088 42.3387 23.0076 42.3387 22.8852ZM32.1357 17.7599H35.0044L33.6345 13.4307H33.5686L32.1357 17.7599ZM26.4601 22.8852L31.5693 9.4108C31.6112 9.28834 31.6997 9.20519 31.8525 9.20519H35.397C35.5498 9.20519 35.6367 9.2878 35.6802 9.4108L40.68 22.8852C40.7235 23.0076 40.6588 23.0903 40.5286 23.0903H36.9393C36.7879 23.0903 36.7009 23.0077 36.6574 22.8852L35.962 20.7412H31.1543L30.4588 22.8852C30.4154 23.0076 30.3284 23.0903 30.1756 23.0903H26.6101C26.4797 23.0891 26.4138 23.0077 26.4587 22.8852H26.4601ZM19.5156 15.188C20.6022 15.188 21.2542 14.6147 21.2542 13.7174C21.2542 12.8187 20.6022 12.2467 19.5156 12.2467H17.4699C17.3816 12.2467 17.3395 12.2871 17.3395 12.3692V15.0625C17.3395 15.1451 17.3814 15.1864 17.4699 15.1864H19.5142L19.5156 15.188ZM25.2122 23.0892H21.4504C21.2542 23.0892 21.1897 23.0277 21.1252 22.8836L18.8847 18.1477H17.4728C17.3844 18.1477 17.3424 18.188 17.3424 18.2701V22.8833C17.3424 23.0058 17.254 23.0889 17.1236 23.0889H13.7306C13.6002 23.0889 13.5132 23.0063 13.5132 22.8833V9.40893C13.5132 9.28648 13.6002 9.20384 13.7306 9.20384H19.7539C23.1469 9.20384 25.0804 11.0625 25.0804 13.6771C25.0804 15.413 24.2111 16.821 22.645 17.557L25.3636 22.8449C25.4281 22.9649 25.3636 23.0888 25.2094 23.0888L25.2122 23.0892ZM7.61332 23.0892H4.22028C4.0913 23.0892 4.00296 23.0066 4.00296 22.8836V12.5118C4.00296 12.4307 3.9611 12.3903 3.87255 12.3903H0.239778C0.110796 12.3903 0.0238337 12.3077 0.0238337 12.1852V9.40925C0.0238337 9.28681 0.110739 9.20416 0.241151 9.20416H11.591C11.7214 9.20416 11.8083 9.28677 11.8083 9.40925V12.1852C11.8083 12.3077 11.7214 12.3903 11.591 12.3903H7.9596C7.8727 12.3903 7.82919 12.4307 7.82919 12.5118V22.8849C7.82919 23.0074 7.74229 23.089 7.61187 23.089L7.61332 23.0892ZM101.449 8.12547C101.605 8.09093 101.745 8.00724 101.845 7.88794C101.945 7.76864 101.999 7.62074 102 7.46817H101.997V0.676288C101.996 0.573562 101.971 0.472384 101.923 0.380277C101.875 0.288171 101.806 0.207512 101.721 0.144327C101.636 0.0811422 101.537 0.0370571 101.431 0.0153504C101.326 -0.00635633 101.216 -0.00511705 101.111 0.0189678L90.813 2.33758C90.4964 2.40925 90.1652 2.39704 89.8554 2.30226L85.2089 0.86896C84.8982 0.773489 84.566 0.761269 84.2485 0.833644L73.6936 3.22557C73.5375 3.25984 73.3981 3.34329 73.298 3.46236C73.198 3.58144 73.1432 3.72914 73.1426 3.88153V10.6721C73.1438 10.775 73.1693 10.8764 73.2174 10.9686C73.2655 11.0608 73.3349 11.1415 73.4203 11.2047C73.5057 11.2679 73.6051 11.3119 73.7109 11.3335C73.8167 11.3551 73.9263 11.3537 74.0315 11.3294L84.2485 9.01479C84.5654 8.94269 84.899 8.95479 85.2089 9.05011L89.8554 10.4847C90.1638 10.578 90.4961 10.5915 90.813 10.5201L101.448 8.12676L101.449 8.12547ZM101.449 18.2586C101.605 18.2243 101.745 18.1406 101.845 18.0213C101.945 17.9019 102 17.7539 102 17.6013H101.997V10.8108C101.996 10.708 101.971 10.6068 101.923 10.5147C101.875 10.4226 101.806 10.342 101.721 10.2788C101.636 10.2156 101.537 10.1715 101.431 10.1498C101.326 10.1281 101.216 10.1293 101.111 10.1534L90.813 12.4694C90.4964 12.541 90.1652 12.5288 89.8554 12.4341L85.2089 10.9999C84.8982 10.9045 84.566 10.8922 84.2485 10.9646L73.695 13.3565C73.5386 13.3909 73.3991 13.4745 73.299 13.5938C73.199 13.7132 73.1443 13.8612 73.144 14.0139V20.8031C73.1452 20.906 73.1707 21.0073 73.2188 21.0995C73.2669 21.1918 73.3362 21.2725 73.4217 21.3357C73.5071 21.3988 73.6065 21.4429 73.7123 21.4645C73.8181 21.4861 73.9277 21.4847 74.0329 21.4604L84.2499 19.1458C84.5668 19.0737 84.9005 19.0858 85.2103 19.1811L89.8568 20.6157C90.1652 20.7104 90.4976 20.7225 90.8144 20.6511L101.449 18.2586Z" fill="white"/>
</g>
<defs>
<clipPath id="clip0_93_1047">
<rect width="102" height="40" fill="white"/>
</clipPath>
</defs>
</svg>
