<svg preserveAspectRatio="none" width="100%" height="100%" overflow="visible" style="display: block;" viewBox="0 0 16 16" fill="none" xmlns="http://www.w3.org/2000/svg">
<g id="element-3">
<path id="Vector" d="M14.6667 5.68V2.65333C14.6667 1.71333 14.24 1.33333 13.18 1.33333H10.4867C9.42667 1.33333 9 1.71333 9 2.65333V5.67333C9 6.62 9.42667 6.99333 10.4867 6.99333H13.18C14.24 7 14.6667 6.62 14.6667 5.68Z" stroke="var(--stroke-0, #030303)" stroke-width="1.5" stroke-linecap="round" stroke-linejoin="round"/>
<path id="Vector_2" d="M14.6667 13.18V10.4867C14.6667 9.42667 14.24 9 13.18 9H10.4867C9.42667 9 9 9.42667 9 10.4867V13.18C9 14.24 9.42667 14.6667 10.4867 14.6667H13.18C14.24 14.6667 14.6667 14.24 14.6667 13.18Z" stroke="var(--stroke-0, #030303)" stroke-width="1.5" stroke-linecap="round" stroke-linejoin="round"/>
<path id="Vector_3" d="M7 5.68V2.65333C7 1.71333 6.57333 1.33333 5.51333 1.33333H2.82C1.76 1.33333 1.33333 1.71333 1.33333 2.65333V5.67333C1.33333 6.62 1.76 6.99333 2.82 6.99333H5.51333C6.57333 7 7 6.62 7 5.68Z" stroke="var(--stroke-0, #171717)" stroke-width="1.5" stroke-linecap="round" stroke-linejoin="round"/>
<path id="Vector_4" d="M7 13.18V10.4867C7 9.42667 6.57333 9 5.51333 9H2.82C1.76 9 1.33333 9.42667 1.33333 10.4867V13.18C1.33333 14.24 1.76 14.6667 2.82 14.6667H5.51333C6.57333 14.6667 7 14.24 7 13.18Z" stroke="var(--stroke-0, #171717)" stroke-width="1.5" stroke-linecap="round" stroke-linejoin="round"/>
<g id="Vector_5" opacity="0">
</g>
</g>
</svg>
