<svg preserveAspectRatio="none" width="100%" height="100%" overflow="visible" style="display: block;" viewBox="0 0 16 16" fill="none" xmlns="http://www.w3.org/2000/svg">
<g id="fatrows">
<path id="Vector" d="M13.2667 9H2.73333C1.73333 9 1.33333 9.42667 1.33333 10.4867V13.18C1.33333 14.24 1.73333 14.6667 2.73333 14.6667H13.2667C14.2667 14.6667 14.6667 14.24 14.6667 13.18V10.4867C14.6667 9.42667 14.2667 9 13.2667 9Z" stroke="var(--stroke-0, #030303)" stroke-width="1.5" stroke-linecap="round" stroke-linejoin="round"/>
<path id="Vector_2" d="M8.6 1.33333H2.73333C1.73333 1.33333 1.33333 1.76 1.33333 2.82V5.51333C1.33333 6.57333 1.73333 7 2.73333 7H8.6C9.6 7 10 6.57333 10 5.51333V2.82C10 1.76 9.6 1.33333 8.6 1.33333Z" stroke="var(--stroke-0, #030303)" stroke-width="1.5" stroke-linecap="round" stroke-linejoin="round"/>
<g id="Vector_3" opacity="0">
</g>
</g>
</svg>
